<svg width="4987" height="4227" viewBox="0 0 4987 4227" fill="none" xmlns="http://www.w3.org/2000/svg">
<path d="M1677.77 2.3512C1721.42 23.7193 1748.69 55.7568 1779.43 92.2864C1799.47 115.571 1821.14 136.754 1843.12 158.189C1860.42 175.901 1876.07 194.561 1891.91 213.58C1914.85 240.345 1932.5 256.554 1967.82 265.114C1967.82 271.094 1967.82 277.074 1967.82 283.235C1974.62 285.559 1981.42 287.884 1988.43 290.278C2062.32 317.909 2112 354.363 2167.23 410.086C2175.83 418.308 2184.43 426.531 2193.29 435.003C2276 522.546 2276 522.546 2276 573.18C2270.02 573.18 2264.04 573.18 2257.87 573.18C2257.87 579.16 2257.87 585.14 2257.87 591.301C2251.89 591.301 2245.91 591.301 2239.75 591.301C2229.51 574.862 2220.01 557.965 2210.85 540.901C2157.85 447.938 2079.63 375.357 1975.83 341.988C1921.86 328.111 1890.5 337.873 1842.63 364.216C1689.72 459.437 1598.52 592.743 1552.58 766.287C1542.48 810.526 1536.52 854.17 1532.75 899.367C1542.9 900.57 1553.06 901.773 1563.52 903.013C1576.87 904.628 1590.21 906.244 1603.56 907.862C1610.25 908.65 1616.94 909.439 1623.83 910.251C1652.1 913.703 1677.87 917.522 1704.97 926.55C1733.31 929.875 1761.51 932.661 1789.94 935.044C1798.99 935.808 1808.03 936.571 1817.35 937.358C1988.02 950.712 2159.36 955.869 2330.39 962.793C2330.39 971.763 2330.39 980.733 2330.39 989.975C1786.91 997.548 1786.91 997.548 1581.64 957.877C1553.36 952.475 1525.03 948.472 1496.49 944.671C1490.51 959.621 1484.53 974.572 1478.37 989.975C1603.13 1016.63 1725.1 1029.47 1852.26 1034.71C1945.71 1038.67 2033.87 1044.35 2123.85 1071.81C2396.76 1154.79 2706.04 1147.73 2983 1089.64C2998.1 1086.61 3013.21 1083.59 3028.32 1080.58C3018.88 1049.77 3007.66 1042.72 2979.88 1024.94C2967.41 1018.4 2954.85 1012.04 2942.21 1005.83C2935.65 1002.6 2929.08 999.362 2922.32 996.03C2870.59 971.845 2831.31 964.511 2774.52 971.853C2702.98 980.841 2632.44 982.002 2560.39 981.481C2544.14 981.419 2544.14 981.419 2527.56 981.357C2501.11 981.251 2474.67 981.103 2448.22 980.914C2466.35 953.732 2466.35 953.732 2486.71 948.983C2494.97 948.366 2503.23 947.749 2511.74 947.113C2520.68 946.383 2529.61 945.653 2538.82 944.901C2548.18 944.265 2557.54 943.628 2567.18 942.972C2576.61 942.231 2586.04 941.489 2595.76 940.725C2619.08 938.906 2642.41 937.207 2665.76 935.61C2667.24 919.247 2667.24 919.247 2668.76 902.553C2670.21 888.277 2671.66 874.001 2673.12 859.726C2673.76 852.532 2674.39 845.337 2675.05 837.924C2677.05 819.018 2680.39 800.266 2683.88 781.577C2697.34 772.607 2697.34 772.607 2711.08 763.456C2711.08 817.277 2711.08 871.098 2711.08 926.55C2749.96 923.56 2788.84 920.569 2828.91 917.489C2825.21 848.658 2819.16 787.591 2797.4 722.116C2791.95 696.775 2795.06 679.558 2801.72 654.727C2810.69 654.727 2819.66 654.727 2828.91 654.727C2833.5 669.053 2838.02 683.404 2842.5 697.765C2845.03 705.754 2847.55 713.743 2850.15 721.974C2856.1 745.334 2856.1 745.334 2856.1 781.577C2866.53 771.154 2876.95 760.727 2887.36 750.289C2896.97 740.71 2906.63 731.179 2916.33 721.691C2949.14 689.403 2979.99 656.065 3010.05 621.209C3032.35 595.761 3055.24 570.874 3078.17 545.997C3125.67 494.37 3172.47 442.362 3216.96 388.106C3221.62 382.504 3226.28 376.902 3231.07 371.131C3240.28 360.055 3249.4 348.913 3258.42 337.693C3293.94 295.171 3335.84 255.162 3391.57 242.825C3411.64 241.214 3431.26 240.965 3451.39 241.274C3458.89 241.209 3466.38 241.144 3474.11 241.077C3498.68 240.925 3523.23 241.099 3547.8 241.294C3565 241.286 3582.2 241.264 3599.4 241.227C3635.36 241.202 3671.32 241.334 3707.28 241.583C3753.24 241.892 3799.19 241.838 3845.15 241.668C3880.64 241.572 3916.13 241.653 3951.62 241.789C3968.56 241.836 3985.51 241.832 4002.45 241.775C4026.18 241.726 4049.89 241.911 4073.62 242.159C4080.53 242.099 4087.45 242.04 4094.57 241.979C4144.49 242.857 4182.98 255.616 4224.77 283.235C4252.65 313.248 4268.83 334.035 4272.92 374.975C4267.14 446.638 4226.78 494.719 4177.75 544.298C4167.13 555.366 4156.53 566.456 4145.96 577.568C4138.24 585.671 4138.24 585.671 4130.37 593.938C4110.74 615.09 4092.65 637.283 4074.65 659.823C4044.55 697.412 4012.94 732.878 3980.04 767.986C3939.63 811.123 3901.75 855.556 3864.72 901.668C3842.1 928.934 3818.36 954.995 3794.23 980.914C3755.16 1022.89 3718.54 1066.28 3682.56 1110.95C3663 1134.7 3642.74 1157.52 3622.01 1180.25C3593.95 1211.02 3567.16 1242.42 3541 1274.82C3506.02 1318.07 3469.08 1359.03 3431.42 1399.94C3402.32 1432.33 3375.08 1466.03 3347.86 1500C3320.16 1533.31 3290.25 1564.36 3259.95 1595.31C3243.69 1613.51 3243.69 1613.51 3247.93 1632.48C3255.79 1653.78 3265.38 1666.9 3280.06 1684.19C3285.24 1690.37 3290.42 1696.54 3295.76 1702.91C3301.35 1709.46 3306.94 1716.01 3312.7 1722.76C3324.39 1736.69 3336.06 1750.62 3347.72 1764.56C3353.52 1771.49 3359.32 1778.41 3365.3 1785.54C3388.16 1813.09 3410.27 1841.17 3432.23 1869.44C3467.91 1915.23 3504.26 1960.41 3541 2005.35C3577.32 2049.81 3613.1 2094.6 3648.07 2140.13C3659.06 2154.18 3659.06 2154.18 3670.27 2168.51C3689.99 2195.06 3689.99 2195.06 3704.9 2220.47C3726.05 2254.84 3740.46 2273.12 3780.24 2283.79C3903.43 2290.98 4030.61 2240.94 4143.19 2195.06C4143.94 2184.22 4144.69 2173.38 4145.46 2162.21C4152.52 2107.4 4181.91 2065.75 4225.73 2031.93C4263.11 2012.28 4301.09 2007.75 4342.6 2013.84C4381.62 2036.2 4409.85 2061.47 4424.18 2104.45C4456.9 2098.51 4456.9 2098.51 4487.63 2086.33C4491.55 2096.7 4491.55 2096.7 4495.56 2107.28C4505.42 2132.99 4505.42 2132.99 4523.88 2158.81C4529.01 2223.98 4512.35 2271.59 4474.67 2323.93C4460.44 2340.03 4460.44 2340.03 4433.24 2358.15C4424.27 2358.15 4415.3 2358.15 4406.05 2358.15C4404.88 2367.05 4404.88 2367.05 4403.68 2376.13C4393.31 2443.47 4375.18 2506.34 4342.6 2566.55C4311.46 2587.3 4297.65 2585.6 4261.59 2579.96C4223.98 2571.2 4182.74 2554.55 4161.32 2521.24C4153.09 2463.66 4174.41 2418.6 4197.58 2367.21C4187.19 2370.93 4176.8 2374.64 4166.1 2378.47C4152.23 2383.4 4138.37 2388.33 4124.5 2393.26C4117.68 2395.7 4110.86 2398.14 4103.84 2400.66C3986.22 2442.4 3986.22 2442.4 3935.29 2440.83C3928.29 2440.67 3921.29 2440.5 3914.08 2440.34C3906.35 2440.02 3906.35 2440.02 3898.47 2439.7C3932.82 2494.24 3970.8 2544.21 4012.01 2593.73C4035.84 2622.63 4058.98 2651.98 4082.01 2681.51C4118.5 2728.19 4155.57 2774.35 4193.05 2820.25C4242.45 2880.8 4291 2941.96 4339.1 3003.54C4352.58 3020.76 4366.14 3037.91 4379.71 3055.05C4386.6 3063.77 4386.6 3063.77 4393.64 3072.67C4402.48 3083.86 4411.33 3095.03 4420.2 3106.2C4458.79 3155.09 4467.34 3184.32 4460.44 3246.11C4445.82 3296.37 4425.81 3321.26 4379.31 3347.04C4346.79 3360.69 4315.18 3359.88 4280.34 3359.53C4268.65 3359.62 4268.65 3359.62 4256.73 3359.72C4231.15 3359.88 4205.57 3359.77 4179.98 3359.65C4162.12 3359.67 4144.25 3359.71 4126.39 3359.75C4089.01 3359.81 4051.64 3359.73 4014.27 3359.56C3966.43 3359.35 3918.59 3359.47 3870.75 3359.69C3833.89 3359.82 3797.02 3359.78 3760.16 3359.69C3742.52 3359.66 3724.88 3359.69 3707.24 3359.78C3682.57 3359.87 3657.92 3359.73 3633.25 3359.53C3626 3359.6 3618.76 3359.67 3611.29 3359.75C3553.5 3358.88 3520.96 3339.45 3479.36 3298.74C3473.15 3291.65 3466.95 3284.56 3460.56 3277.25C3450.06 3265.27 3450.06 3265.27 3439.35 3253.04C3411.8 3220.6 3384.8 3187.74 3358.02 3154.65C3334.98 3126.47 3311.42 3098.79 3287.78 3071.12C3249.53 3026.24 3212.76 2980.42 3176.59 2933.86C3135.8 2881.55 3093.52 2830.5 3051.04 2779.56C3045.85 2773.32 3040.67 2767.08 3035.33 2760.65C3030.69 2755.1 3026.06 2749.55 3021.28 2743.83C3010.19 2729.64 3010.19 2729.64 3001.12 2711.52C2964.3 2716.76 2939.06 2728.66 2907.65 2748.33C2895.65 2755.78 2895.65 2755.78 2883.4 2763.37C2877.38 2767.19 2871.36 2771.01 2865.16 2774.95C2870.78 2826.58 2879.69 2876.96 2889.76 2927.9C2916.98 3066.55 2934.52 3205.06 2946.74 3345.78C2947.39 3353.17 2948.05 3360.56 2948.72 3368.18C2963.34 3541.77 2962.36 3716.93 2937.68 3889.42C2946 3889 2954.31 3888.58 2962.89 3888.15C3049.59 3885.6 3099.6 3891.38 3163.71 3950.02C3182.41 3980.03 3182.41 3980.03 3191.47 4061.58C3044.9 4061.58 2898.34 4061.58 2747.33 4061.58C2747.33 3990.19 2747.76 3927.12 2754.26 3857.65C2759.27 3783.45 2758.19 3708.92 2758.1 3634.59C2758.08 3625.69 2758.07 3616.79 2758.06 3607.63C2757.44 3354.86 2728.49 3114.02 2683.88 2865.55C2608.4 2919.67 2608.4 2919.67 2535.46 2977.11C2527.26 2983.9 2519.05 2990.69 2510.6 2997.68C2477.16 3025.72 2443.84 3053.91 2410.56 3082.15C2378.75 3109.11 2346.76 3135.83 2314.52 3162.29C2306.52 3168.96 2298.52 3175.63 2290.27 3182.5C2266.94 3200.8 2266.94 3200.8 2243.89 3214.85C2194.5 3246.02 2176.78 3277.07 2163.27 3333.32C2157.95 3358.65 2153.33 3383.7 2149.1 3409.2C2146.71 3421.33 2146.71 3421.33 2144.27 3433.71C2128.91 3518.3 2128.51 3601.58 2129.11 3687.24C2129.28 3711.75 2129.3 3736.26 2129.29 3760.77C2129.34 3776.54 2129.39 3792.31 2129.45 3808.09C2129.47 3818.93 2129.47 3818.93 2129.48 3830C2129.74 3860.53 2130.94 3889.17 2135.6 3919.42C2141.84 3966.42 2140.04 4014.17 2140.04 4061.58C1993.48 4061.58 1846.91 4061.58 1695.9 4061.58C1695.9 4004.57 1698.21 3994.82 1732.16 3952.85C1770.73 3914.5 1806.98 3890.88 1862.06 3887.65C1877.68 3887.97 1877.68 3887.97 1893.61 3888.29C1904.14 3888.45 1914.67 3888.62 1925.51 3888.78C1937.48 3889.1 1937.48 3889.1 1949.7 3889.42C1948.22 3880.68 1946.74 3871.93 1945.22 3862.93C1939.5 3822.72 1939.49 3783.05 1939.75 3742.5C1939.77 3730.87 1939.77 3730.87 1939.79 3719.01C1939.84 3694.45 1939.95 3669.9 1940.07 3645.35C1940.11 3628.61 1940.15 3611.88 1940.19 3595.14C1940.29 3554.3 1940.44 3513.46 1940.63 3472.63C1880.85 3521.27 1821.44 3570.21 1763.3 3620.8C1716.43 3660.97 1686.5 3676.47 1625.05 3674.76C1594.04 3670.38 1580.32 3659.08 1559.94 3635.72C1528.53 3578.96 1528.75 3527.57 1528.83 3463.62C1528.69 3447.43 1528.69 3447.43 1528.55 3430.92C1528.32 3401.5 1528.22 3372.07 1528.16 3342.65C1528.08 3311.84 1527.84 3281.02 1527.62 3250.21C1527.22 3191.94 1526.96 3133.67 1526.75 3075.39C1526.51 3009.02 1526.11 2942.65 1525.7 2876.28C1524.86 2739.81 1524.21 2603.35 1523.69 2466.88C1519.67 2470.94 1515.66 2475 1511.52 2479.18C1492.94 2497.95 1474.32 2516.67 1455.71 2535.4C1449.4 2541.79 1443.09 2548.17 1436.59 2554.75C1394.63 2596.88 1351.24 2636.55 1306.15 2675.28C1295.76 2684.53 1285.4 2693.8 1275.06 2703.1C1194.66 2774.65 1110.23 2838.37 1021.91 2899.86C1005.78 2911.22 1005.78 2911.22 988.907 2928.98C1063.55 3011.15 1136.74 3089.86 1223.47 3159.6C1261.81 3190.6 1298.98 3222.99 1336.21 3255.3C1358.82 3274.83 1380.96 3292.94 1405.85 3309.53C1405.43 3407.42 1366.44 3477.13 1300.48 3547.94C1219.25 3624.98 1120.93 3663.24 1010.04 3667.08C981.2 3661.38 971.922 3648.54 952.651 3626.66C940.965 3605.6 940.965 3605.6 930.805 3582.24C926.935 3573.52 923.064 3564.79 919.077 3555.81C915.014 3546.48 910.951 3537.16 906.764 3527.56C859.692 3422.32 808.76 3319.95 753.242 3218.92C748.617 3210.31 748.617 3210.31 743.899 3201.52C711.232 3138.59 711.232 3138.59 652.971 3103.4C643.945 3101.05 643.945 3101.05 634.737 3098.66C594.379 3083.44 570.691 3043.12 551.001 3006.56C544.769 2983.34 544.769 2983.34 543.636 2948.8C539.081 2904.75 513.98 2884.68 482.348 2855.93C465.125 2840.14 450.677 2824.2 436.001 2806.09C411.669 2777.13 384.862 2752.89 356.053 2728.44C335.027 2710.43 314.735 2691.76 294.375 2673.01C258.394 2640.47 221.125 2610.35 182.774 2580.71C17.6766 2452.53 17.6766 2452.53 0.92644 2394.39C0.92644 2310.67 45.4329 2249.04 101.197 2189.39C187.115 2107.71 286.872 2050.56 405.976 2046.12C453.812 2047.62 483.298 2050.35 517.577 2086.33C552.272 2147.31 579.007 2212.74 606.518 2277.17C622.137 2313.25 637.822 2349.3 653.538 2385.33C656.61 2392.39 659.683 2399.44 662.849 2406.71C718.015 2532.1 786 2651.91 862.011 2765.89C995.753 2727.86 1115.49 2603.93 1215.51 2512.18C1227.99 2500.97 1227.99 2500.97 1240.72 2489.53C1259.6 2472.55 1278.03 2455.18 1296.35 2437.6C1323.38 2412 1351.62 2388.68 1380.69 2365.43C1464.58 2294.93 1531.8 2232.52 1543.92 2118.78C1546.09 2065.6 1545.35 2012.83 1542.99 1959.69C1541.77 1927.7 1541.68 1895.71 1541.46 1863.7C1540.87 1803.41 1539.32 1743.19 1537.39 1682.93C1535.25 1614.2 1534.22 1545.46 1533.26 1476.7C1531.29 1335.56 1527.95 1194.49 1523.69 1053.4C1513.59 1049.29 1503.5 1045.18 1493.09 1040.94C1460.24 1026.22 1460.24 1026.22 1442.11 1008.1C1439.38 989.444 1439.38 989.444 1439.28 967.889C1439.12 960.8 1438.97 953.71 1438.82 946.405C1442.85 922.105 1449.87 914.069 1469.3 899.367C1475.28 899.367 1481.27 899.367 1487.43 899.367C1486.87 887.968 1486.31 876.568 1485.73 864.823C1485.54 803.873 1504.58 748.266 1523.69 690.97C1524.48 671.437 1524.73 651.88 1524.68 632.331C1524.69 620.08 1524.69 607.829 1524.7 595.578C1524.69 589.094 1524.67 582.61 1524.66 575.929C1524.63 541.506 1524.86 507.084 1525.05 472.662C1525.27 428.896 1525.41 385.135 1525.27 341.369C1525.17 305.967 1525.33 270.575 1525.66 235.174C1525.74 221.722 1525.72 208.269 1525.6 194.818C1524.63 76.4433 1524.63 76.4433 1559.24 34.9399C1595.14 0.973461 1629.09 -3.94917 1677.77 2.3512Z" fill="black"/>
<path d="M2505.43 275.873C2549.03 308.885 2586.87 347.698 2624.72 386.974C2642.75 405.161 2660.24 420.665 2680.48 436.135C2741.2 486.277 2787.74 565.914 2819.84 636.605C2819.84 642.585 2819.84 648.565 2819.84 654.727C2813.86 654.727 2807.88 654.727 2801.72 654.727C2805.02 693.11 2808.39 728.956 2820.41 765.721C2833.01 816.111 2830.31 865.813 2828.91 917.489C2801.58 926.595 2783.21 927.486 2754.7 927.116C2740.3 926.929 2725.91 926.742 2711.08 926.55C2708.08 875.719 2705.09 824.888 2702.01 772.517C2682.72 791.797 2686.65 831.803 2683.88 858.594C2676.04 934.386 2676.04 934.386 2665.76 944.671C2651.08 946.62 2636.33 948.031 2621.57 949.202C2612.64 949.949 2603.71 950.697 2594.52 951.467C2575.54 952.977 2556.56 954.487 2537.58 955.997C2528.66 956.745 2519.73 957.492 2510.53 958.262C2498.16 959.243 2498.16 959.243 2485.54 960.244C2466.51 960.793 2466.51 960.793 2457.28 971.853C2493.16 972.12 2529.04 972.279 2564.92 972.42C2574.97 972.496 2585.01 972.572 2595.37 972.65C2663.19 972.849 2729.22 969.308 2796.35 959.654C2854.08 952.192 2897.42 975.32 2947.31 1001.3C2957.68 1006.67 2957.68 1006.67 2968.27 1012.14C3017.61 1039.4 3017.61 1039.4 3025.75 1063.8C3026.6 1069.34 3027.44 1074.88 3028.32 1080.58C2749.47 1180.88 2383.61 1160.13 2104.35 1074.92C2007.55 1045.5 1907.17 1045.68 1806.85 1041.33C1731.48 1038.01 1657.19 1033.91 1582.6 1021.69C1575.95 1020.61 1569.31 1019.54 1562.46 1018.43C1531.78 1012.91 1505.29 1005.9 1478.37 989.975C1481.36 975.025 1484.35 960.074 1487.43 944.671C1523.75 930.73 1557.16 940.076 1593.93 947.503C1621.81 953.039 1649.74 958.082 1677.77 962.793C1691.8 965.171 1691.8 965.171 1706.12 967.597C1831.95 986.131 1958.71 985.039 2085.66 986.577C2109.45 986.924 2133.24 987.278 2157.04 987.639C2214.82 988.501 2272.6 989.274 2330.39 989.975C2330.39 981.005 2330.39 972.035 2330.39 962.793C2325.27 962.888 2320.15 962.982 2314.88 963.08C2164.15 965.454 2015.07 958.165 1864.84 947.065C1842.63 945.452 1820.4 943.941 1798.17 942.525C1738.39 938.648 1679.98 933.211 1621.12 922.019C1614.5 920.84 1607.87 919.66 1601.05 918.444C1553.52 909.751 1553.52 909.751 1532.75 899.367C1522.7 756.148 1585.03 598.889 1678.52 490.898C1719.31 446.488 1762.69 406.205 1813.74 373.843C1820.45 369.463 1827.17 365.083 1834.09 360.57C1876.82 334.57 1907.64 320.326 1958.76 328.539C2078.19 367.966 2167.34 446.883 2230.08 553.819C2239.75 573.18 2239.75 573.18 2239.75 591.301C2245.73 591.301 2251.71 591.301 2257.87 591.301C2257.87 585.321 2257.87 579.341 2257.87 573.18C2263.86 573.18 2269.84 573.18 2276 573.18C2251.44 519.367 2229.09 477.239 2185.36 437.268C2185.36 431.288 2185.36 425.308 2185.36 419.147C2180.03 416.776 2174.7 414.405 2169.22 411.962C2148.07 400.465 2134.44 387.875 2117.38 371.011C2079.26 336.282 2039.32 320.72 1990.84 304.4C1967.82 292.296 1967.82 292.296 1955.57 268.299C1953.63 261.268 1951.69 254.236 1949.7 246.992C2116.17 142.982 2345.69 172.898 2505.43 275.873Z" fill="#2E2D2D"/>
<path d="M517.577 2186C537.383 2205.8 543.967 2220.71 554.754 2246.38C558.411 2254.98 562.068 2263.58 565.836 2272.44C569.727 2281.66 573.617 2290.89 577.626 2300.39C615.116 2387.78 654.35 2473.45 698.858 2557.49C702.265 2563.96 705.672 2570.44 709.183 2577.11C832.173 2809.26 992.014 3023.05 1197.84 3188.34C1235.5 3218.66 1272.47 3249.8 1309.51 3280.86C1329.18 3297.05 1349.05 3312.6 1369.6 3327.65C1365.7 3417.35 1309.53 3485.18 1246.74 3545.29C1186.56 3594.01 1123.08 3618.93 1046.12 3618.16C1035.43 3618.08 1024.74 3618 1013.73 3617.92C1005.54 3617.81 997.346 3617.71 988.907 3617.6C986.409 3612.01 983.911 3606.42 981.337 3600.66C872.688 3356.49 872.688 3356.49 736.424 3127.08C726.05 3110.19 726.05 3110.19 726.05 3092.07C737.547 3082.26 737.547 3082.26 749.276 3072.25C774.957 3048.25 774.957 3048.25 771.37 3013.92C762.801 2985.01 759.009 2973.36 735.114 2956.16C729.132 2953.17 723.149 2950.18 716.986 2947.1C714.369 2938.32 711.751 2929.53 709.055 2920.49C701.455 2892.79 701.455 2892.79 683.562 2879.71C644.87 2870.3 609.016 2880.39 571.961 2892.74C565.893 2886.58 559.826 2880.42 553.574 2874.07C530.597 2850.77 507.556 2827.53 484.496 2804.31C474.61 2794.33 464.739 2784.35 454.888 2774.34C398.183 2716.76 340.902 2662.33 277.563 2611.93C244.37 2585.49 212.46 2557.65 180.508 2529.74C174.473 2524.49 168.438 2519.24 162.22 2513.83C147.722 2501.21 133.239 2488.58 118.759 2475.94C144.556 2462.65 168.249 2453.72 196.37 2446.49C339.567 2404.1 442.867 2312.47 517.577 2186Z" fill="#F8F8F8"/>
<path d="M2251.26 3879.19C2262.09 3879.16 2272.91 3879.13 2284.07 3879.1C2295.58 3879.12 2307.09 3879.14 2318.95 3879.16C2330.89 3879.15 2342.83 3879.14 2355.13 3879.13C2380.27 3879.12 2405.42 3879.14 2430.57 3879.18C2462.83 3879.23 2495.08 3879.2 2527.34 3879.15C2558.15 3879.11 2588.95 3879.13 2619.76 3879.16C2631.37 3879.14 2642.97 3879.12 2654.92 3879.1C2665.61 3879.13 2676.29 3879.16 2687.29 3879.19C2696.72 3879.2 2706.15 3879.2 2715.87 3879.21C2738.27 3880.36 2738.27 3880.36 2756.4 3889.42C2753.4 3946.23 2750.41 4003.04 2747.33 4061.58C2893.9 4061.58 3040.46 4061.58 3191.47 4061.58C3174.53 3985.39 3168.75 3966.37 3118.96 3916.6C3514.12 3953.62 3514.12 3953.62 3599.35 4034.39C3605.02 4057.05 3605.02 4057.05 3599.35 4079.7C3540.44 4144.48 3436.79 4160.63 3354.62 4175.97C3344.54 4177.89 3334.45 4179.82 3324.06 4181.8C3221.66 4200.31 3118.92 4208.23 3015.1 4213.64C2992.4 4215.05 2992.4 4215.05 2971.99 4220.17C2941.7 4225.57 2912.98 4225.96 2882.19 4226.13C2875.83 4226.17 2869.48 4226.22 2862.93 4226.26C2841.85 4226.39 2820.77 4226.46 2799.7 4226.51C2784.79 4226.57 2769.87 4226.64 2754.96 4226.7C2706.91 4226.88 2658.86 4226.92 2610.8 4226.94C2602.67 4226.94 2594.54 4226.95 2586.16 4226.95C1598.04 4227.41 1598.04 4227.41 1451.17 4088.76C1443.24 4059.31 1443.24 4059.31 1442.11 4034.39C1509.39 3974.18 1624.13 3941.91 1714.03 3934.73C1734.6 3938.9 1734.6 3938.9 1750.29 3943.79C1744.68 3949.77 1739.07 3955.75 1733.29 3961.91C1708.18 3993.87 1708.18 3993.87 1695.9 4061.58C1842.47 4061.58 1989.03 4061.58 2140.04 4061.58C2137.05 4004.76 2134.06 3947.95 2130.98 3889.42C2173.43 3883.36 2209.24 3879.22 2251.26 3879.19Z" fill="#D3D4D4"/>
<path d="M1977.95 334.874C2115.33 391.184 2190.33 481.585 2257.87 609.423C2262.65 618.206 2267.43 626.989 2272.35 636.039C2287.23 668.514 2296.62 701.113 2304.89 735.707C2306.5 741.67 2308.11 747.632 2309.76 753.776C2325.69 819.754 2322.77 886.319 2321.32 953.732C1653.11 959.527 1653.11 959.527 1532.75 899.367C1522.7 756.148 1585.03 598.889 1678.52 490.898C1719.31 446.488 1762.69 406.205 1813.74 373.843C1820.45 369.463 1827.17 365.083 1834.09 360.57C1883.16 330.708 1920.62 315.949 1977.95 334.874Z" fill="#F9F9F9"/>
<path d="M4542.01 1343.34C4596.86 1347.33 4649.92 1356.83 4696.1 1388.65C4703.35 1407.98 4705.16 1422.44 4705.16 1443.01C4713.95 1447.31 4722.74 1451.61 4731.79 1456.04C4759.55 1470.2 4759.55 1470.2 4768.61 1479.26C4769.89 1503.45 4769 1527.5 4768.61 1551.74C4790.13 1554.77 4790.13 1554.77 4813.93 1551.74C4830.64 1534.52 4830.64 1534.52 4841.13 1515.5C4893.34 1520.99 4938.29 1540.48 4986.15 1560.8C4987.23 1629.27 4969.47 1688.2 4945.93 1751.65C4943.09 1759.31 4940.26 1766.97 4937.34 1774.86C4916.17 1830.09 4916.17 1830.09 4895.51 1850.75C4845.06 1848.18 4803.09 1840.62 4759.55 1814.5C4746.52 1781.09 4746.52 1781.09 4741.42 1751.08C4719.91 1748.05 4719.91 1748.05 4696.1 1751.08C4692.08 1757.06 4688.06 1763.04 4683.92 1769.2C4668.91 1787.32 4668.91 1787.32 4646.43 1790.86C4638.33 1790.44 4630.23 1790.02 4621.89 1789.59C4613.72 1789.26 4605.55 1788.93 4597.14 1788.6C4590.91 1788.18 4584.68 1787.76 4578.27 1787.32C4576.03 1796.24 4573.8 1805.15 4571.5 1814.34C4563.15 1847.47 4554.56 1880.53 4545.9 1913.58C4542.19 1927.88 4538.55 1942.2 4534.96 1956.53C4529.8 1977.16 4524.4 1997.71 4518.96 2018.27C4517.41 2024.67 4515.86 2031.07 4514.26 2037.66C4505.84 2068.61 4499.45 2084.18 4473.84 2104.17C4451.37 2113.51 4451.37 2113.51 4432.11 2113.51C4408.15 2100.73 4401.46 2082.43 4387.92 2059.15C4366.94 2036.32 4352.84 2023.99 4321.54 2020.67C4301.23 2020.64 4281.26 2021.32 4261.03 2022.9C4261.03 2019.91 4261.03 2016.92 4261.03 2013.84C4287.95 2009.36 4287.95 2009.36 4315.41 2004.78C4318.38 1996.64 4321.36 1988.5 4324.42 1980.12C4335.44 1949.95 4346.47 1919.8 4357.51 1889.64C4362.29 1876.58 4367.06 1863.52 4371.83 1850.46C4378.69 1831.7 4385.55 1812.94 4392.42 1794.19C4394.55 1788.34 4396.69 1782.48 4398.89 1776.45C4406.59 1755.45 4414.16 1734.87 4424.18 1714.84C4415.77 1713.9 4407.35 1712.97 4398.69 1712.01C4359.68 1703.59 4359.68 1703.59 4342.6 1678.59C4342.25 1650.49 4342.25 1650.49 4346 1618.57C4348.17 1599.34 4350.13 1580.09 4351.67 1560.8C4337.22 1546.37 4322.37 1549.85 4302.38 1549.48C4258.77 1549.73 4223.02 1559.07 4181.93 1572.87C4156.42 1580.36 4133.35 1581.01 4106.94 1578.92C4107.74 1566.46 4108.72 1554 4109.77 1541.55C4110.3 1534.61 4110.82 1527.67 4111.36 1520.53C4117.81 1488.35 4123.66 1470.06 4143.19 1443.01C4174.9 1425.92 4208.14 1415.04 4242.33 1403.94C4251.42 1400.8 4260.5 1397.67 4269.86 1394.44C4323.45 1376.1 4371.19 1360.16 4428.14 1359.77C4440.75 1359.57 4440.75 1359.57 4453.6 1359.38C4480.18 1361.6 4499.76 1368.52 4523.88 1379.59C4529.87 1367.63 4535.85 1355.67 4542.01 1343.34Z" fill="#313130"/>
<path d="M2532.73 1440.64C2565.6 1450.13 2588.75 1452 2621.57 1444.71C2656.69 1443.01 2656.69 1443.01 2672.38 1453.6C2735.15 1521.3 2744.15 1600.09 2741.91 1689.6C2732.86 1774.73 2697.32 1839.72 2633.96 1896.83C2553.77 1958.39 2473.82 1971.18 2375.11 1962.07C2304.52 1951.62 2245.78 1906.57 2203.49 1850.75C2152.37 1765.94 2133.8 1678.02 2149.1 1578.92C2171.72 1500.57 2217.04 1434.14 2285.07 1388.65C2347.59 1357.4 2470.49 1420.88 2532.73 1440.64Z" fill="#F7F6F6"/>
<path d="M2364.38 252.655C2483.37 301.534 2572.72 374.91 2629.5 491.633C2671.07 596.618 2677.68 707.856 2676.52 819.519C2676.51 836.172 2676.51 836.172 2676.5 853.161C2676.1 934.335 2676.1 934.335 2665.76 944.671C2648.95 945.463 2632.12 945.641 2615.3 945.556C2605.11 945.527 2594.91 945.498 2584.41 945.468C2573.68 945.392 2562.95 945.316 2551.89 945.238C2541.12 945.197 2530.35 945.156 2519.26 945.114C2492.56 945.006 2465.86 944.857 2439.15 944.671C2438.65 926.748 2438.65 926.748 2438.13 908.464C2431.31 708.418 2413.8 506.651 2261.1 359.862C2216.97 322.048 2174.46 292.363 2119.89 271.945C2103.78 265.114 2103.78 265.114 2085.66 246.992C2154.92 212.374 2293.11 230.125 2364.38 252.655Z" fill="#F8F8F7"/>
<path d="M1496.49 935.61C1510.36 937.339 1524.13 939.771 1537.85 942.406C1553.82 945.13 1569.8 947.844 1585.78 950.488C1598.74 952.646 1611.69 954.867 1624.63 957.151C1814.7 989.694 2006.39 984.715 2198.51 983.837C2234.69 983.715 2270.87 983.762 2307.05 983.811C2342.42 983.841 2377.78 983.781 2413.14 983.692C2429.78 983.658 2446.43 983.646 2463.07 983.661C2577.14 983.678 2687.32 975.411 2800.19 959.078C2874.6 949.556 2942.82 998.046 3005.52 1032.74C3022.82 1047.36 3024.95 1058.59 3028.32 1080.58C2749.47 1180.88 2383.61 1160.13 2104.35 1074.92C2007.55 1045.5 1907.17 1045.68 1806.85 1041.33C1731.48 1038.01 1657.19 1033.91 1582.6 1021.69C1575.95 1020.61 1569.31 1019.54 1562.46 1018.43C1531.78 1012.91 1505.29 1005.9 1478.37 989.975C1486.3 945.804 1486.3 945.804 1496.49 935.61Z" fill="#F2F2F2"/>
<path d="M490.385 2113.51C487.394 2140.42 484.402 2167.33 481.321 2195.06C487.303 2189.08 493.285 2183.1 499.449 2176.94C508.422 2179.93 517.396 2182.92 526.641 2186C438.993 2327.16 324.36 2427.24 159.972 2468.58C149.363 2471.01 138.754 2473.44 127.823 2475.94C148.39 2493.89 168.972 2511.83 189.572 2529.74C195.74 2535.11 201.909 2540.48 208.264 2546.01C244.515 2577.43 281.213 2608.01 318.734 2637.9C356.747 2668.59 387.675 2700.36 417.872 2738.7C399.926 2747.67 399.926 2747.67 381.616 2756.83C375.5 2750.4 375.5 2750.4 369.259 2743.84C327.431 2700.85 283.444 2662.42 236.698 2624.88C201.438 2596.35 166.907 2567.01 132.384 2537.6C110.411 2518.92 88.3771 2500.69 65.4369 2483.2C59.1041 2477.81 52.7713 2472.43 46.2466 2466.88C46.2466 2460.9 46.2466 2454.92 46.2466 2448.76C73.1668 2448.76 100.087 2448.76 127.823 2448.76C115.858 2442.78 103.894 2436.8 91.5669 2430.64C66.0742 2416.48 66.0742 2416.48 46.2466 2394.39C39.5992 2356.36 48.2667 2325.07 67.3489 2291.97C83.3473 2270.37 100.317 2250.85 118.759 2231.3C124.659 2225.03 130.56 2218.76 136.639 2212.29C219.208 2132.22 381.427 2031.82 490.385 2113.51Z" fill="#3F3D3D"/>
<path d="M4585.63 1437.35C4596.75 1441.09 4607.87 1444.83 4619.32 1448.68C4701.08 1476.53 4701.08 1476.53 4732.36 1497.38C4733.1 1507.47 4733.85 1517.56 4734.62 1527.96C4737.77 1560.33 4737.77 1560.33 4756.04 1573.01C4771.88 1581.86 4788.35 1589.54 4804.87 1597.05C4800.55 1613.29 4796.2 1629.52 4791.84 1645.75C4789.42 1654.79 4787 1663.83 4784.51 1673.14C4777.68 1696.71 4777.68 1696.71 4768.61 1714.84C4763.15 1713.66 4757.68 1712.48 4752.04 1711.26C4729.73 1707.41 4709.68 1704.63 4687.04 1705.78C4674.73 1720.69 4662.63 1735.79 4650.78 1751.08C4591.49 1748.95 4539.56 1730.53 4484.23 1710.31C4476.06 1707.4 4467.89 1704.49 4459.48 1701.49C4400.63 1680.41 4400.63 1680.41 4378.86 1669.53C4381.85 1627.67 4384.84 1585.81 4387.92 1542.68C4311.68 1496.95 4235.94 1513.3 4152.26 1533.62C4150.56 1509.27 4150.56 1509.27 4161.32 1479.26C4296.93 1387.4 4438.47 1386.14 4585.63 1437.35Z" fill="#F6F6F6"/>
<path d="M408.808 2738.7C436.93 2749.51 455.434 2765.03 476.364 2786.34C481.972 2792.01 487.581 2797.67 493.359 2803.51C499.107 2809.41 504.856 2815.31 510.779 2821.38C516.668 2827.35 522.556 2833.32 528.624 2839.47C543.111 2854.16 557.555 2868.9 571.961 2883.68C578.773 2880.66 585.585 2877.65 592.603 2874.54C625.775 2862.46 646.753 2865.97 680.73 2874.61C702.823 2891.04 702.823 2891.04 716.986 2910.86C716.986 2922.82 716.986 2934.78 716.986 2947.1C724.09 2949.34 731.194 2951.59 738.513 2953.9C762.306 2965.22 762.306 2965.22 774.769 2980.51C783.049 3011.14 778.611 3034.27 771.37 3064.89C758.341 3082.45 758.341 3082.45 744.178 3092.07C738.196 3092.07 732.213 3092.07 726.05 3092.07C733.972 3105.13 733.972 3105.13 742.054 3118.44C988.907 3529.24 988.907 3529.24 988.907 3617.6C1112.19 3613.79 1203.04 3581.89 1290.32 3491.92C1324.27 3450.54 1353.88 3402.83 1365.6 3350.23C1357.64 3314.75 1330.94 3300.15 1302.75 3280.08C1291.02 3271.33 1279.31 3262.56 1267.63 3253.75C1258.93 3247.25 1258.93 3247.25 1250.06 3240.62C1219.53 3217.14 1191.5 3191 1163.18 3164.95C1144.68 3147.98 1125.82 3131.59 1106.74 3115.29C1046.23 3062.42 984.174 3008.12 943.587 2938.04C952.56 2929.07 961.534 2920.1 970.779 2910.86C982.311 2923.52 982.311 2923.52 994.076 2936.45C1096.32 3047.9 1202.6 3150.26 1322.86 3242.14C1337.02 3253.07 1337.02 3253.07 1351.47 3264.23C1356.64 3267.99 1361.82 3271.76 1367.15 3275.64C1404.46 3304.03 1404.46 3304.03 1411.09 3330.27C1395.78 3439.22 1336.84 3522.31 1251.76 3590.42C1174.55 3637.91 1081.68 3681.23 988.907 3662.9C960.889 3638.72 945.48 3615.98 930.805 3582.24C926.935 3573.52 923.064 3564.79 919.077 3555.81C915.014 3546.48 910.951 3537.16 906.764 3527.56C859.692 3422.32 808.76 3319.95 753.242 3218.92C750.159 3213.18 747.076 3207.44 743.899 3201.52C711.232 3138.59 711.232 3138.59 652.971 3103.4C646.954 3101.83 640.936 3100.27 634.737 3098.66C594.379 3083.44 570.691 3043.12 551.001 3006.56C544.769 2983.34 544.769 2983.34 543.636 2948.8C539.092 2904.86 514.138 2884.82 482.56 2856.14C459.331 2834.83 439.814 2811.54 419.926 2787.16C408.997 2773.68 408.997 2773.68 390.68 2765.89C390.68 2759.91 390.68 2753.93 390.68 2747.76C396.663 2744.77 402.645 2741.78 408.808 2738.7Z" fill="#373636"/>
<path d="M2547.92 1461.13C2588.98 1482.13 2610.76 1517.75 2629.92 1558.61C2654.24 1641.3 2652.34 1746.45 2613.64 1824.24C2593.7 1854.93 2580.73 1868.77 2547.92 1886.99C2516.37 1893.07 2488.78 1893.57 2457.28 1886.99C2402.07 1845.89 2377.53 1790.2 2366.64 1723.9C2365.39 1702.47 2365.75 1681.96 2366.64 1660.47C2375.16 1661.77 2375.16 1661.77 2383.85 1663.09C2394.96 1664.6 2394.96 1664.6 2406.3 1666.13C2413.66 1667.19 2421.02 1668.24 2428.6 1669.32C2435.08 1669.39 2441.55 1669.46 2448.22 1669.53C2469.79 1651.92 2469.79 1651.92 2468.61 1619.7C2469.79 1587.47 2469.79 1587.47 2448.22 1569.86C2424.92 1564 2424.92 1564 2402.9 1560.8C2406.66 1516.97 2424.83 1498.68 2457.28 1470.2C2486.47 1455.61 2516.28 1457.04 2547.92 1461.13Z" fill="black"/>
<path d="M2230.68 192.627C2334.75 181.481 2444.32 229.592 2526.47 291.8C2561.02 321.782 2593 354.062 2624.72 386.974C2642.75 405.161 2660.24 420.665 2680.48 436.135C2741.2 486.277 2787.74 565.914 2819.84 636.605C2819.84 642.585 2819.84 648.565 2819.84 654.727C2813.86 654.727 2807.88 654.727 2801.72 654.727C2805.02 693.11 2808.39 728.956 2820.41 765.721C2833.01 816.111 2830.31 865.813 2828.91 917.489C2801.58 926.595 2783.21 927.486 2754.7 927.116C2740.3 926.929 2725.91 926.742 2711.08 926.55C2708.08 875.719 2705.09 824.888 2702.01 772.517C2688.44 786.084 2689.94 799.592 2687.85 818.387C2686.54 830.16 2685.23 841.933 2683.88 854.063C2680.89 854.063 2677.9 854.063 2674.82 854.063C2674.31 838.926 2674.31 838.926 2673.79 823.483C2666.36 638.932 2645.16 472.919 2504.87 339.865C2420.05 268.91 2316.45 245.055 2208.59 241.329C2196.05 240.803 2196.05 240.803 2183.25 240.267C2162.81 239.42 2142.36 238.643 2121.91 237.931C2121.91 234.941 2121.91 231.951 2121.91 228.87C2166.78 228.87 2211.65 228.87 2257.87 228.87C2257.87 219.9 2257.87 210.93 2257.87 201.688C2248.9 198.698 2239.93 195.708 2230.68 192.627Z" fill="#2A2A2A"/>
<path d="M4560.14 1379.59C4606.49 1389.27 4651.44 1399.8 4696.1 1415.83C4699.09 1409.85 4702.08 1403.87 4705.16 1397.71C4705.16 1412.66 4705.16 1427.61 4705.16 1443.01C4713.95 1447.31 4722.74 1451.61 4731.79 1456.04C4759.55 1470.2 4759.55 1470.2 4768.61 1479.26C4769.89 1503.45 4769 1527.5 4768.61 1551.74C4790.13 1554.77 4790.13 1554.77 4813.93 1551.74C4830.64 1534.52 4830.64 1534.52 4841.13 1515.5C4893.34 1520.99 4938.29 1540.48 4986.15 1560.8C4987.23 1629.27 4969.47 1688.2 4945.93 1751.65C4943.09 1759.31 4940.26 1766.97 4937.34 1774.86C4916.17 1830.09 4916.17 1830.09 4895.51 1850.75C4845.06 1848.18 4803.09 1840.62 4759.55 1814.5C4746.52 1781.09 4746.52 1781.09 4741.42 1751.08C4723.47 1751.08 4705.53 1751.08 4687.04 1751.08C4689.56 1742.67 4689.56 1742.67 4692.14 1734.09C4698.25 1714.46 4698.25 1714.46 4687.04 1696.71C4713.96 1702.7 4740.88 1708.68 4768.61 1714.84C4770.47 1707.85 4772.33 1700.87 4774.24 1693.67C4776.68 1684.58 4779.13 1675.5 4781.64 1666.13C4784.06 1657.09 4786.48 1648.05 4788.97 1638.74C4795.81 1615.17 4795.81 1615.17 4804.87 1597.05C4796.27 1594.43 4787.67 1591.81 4778.81 1589.12C4750.49 1578.92 4750.49 1578.92 4732.36 1560.8C4729.37 1539.87 4726.37 1518.94 4723.29 1497.38C4681.42 1482.43 4639.54 1467.48 4596.4 1452.07C4602.38 1449.08 4608.36 1446.09 4614.52 1443.01C4611.53 1434.04 4608.54 1425.07 4605.46 1415.83C4582.76 1404.79 4582.76 1404.79 4560.14 1397.71C4560.14 1391.73 4560.14 1385.75 4560.14 1379.59Z" fill="#323130"/>
<path d="M494.917 2062.54C549.542 2119.88 575.756 2205.11 606.518 2277.17C661.092 2403.4 714.772 2527.1 788.949 2643.3C817.426 2689.18 817.426 2689.18 813.183 2713.51C810.432 2721.5 810.432 2721.5 807.626 2729.64C776.784 2719.37 775.231 2716.16 760.5 2689.12C756.872 2682.54 753.244 2675.96 749.507 2669.18C745.692 2662.04 741.877 2654.89 737.946 2647.53C731.926 2636.43 731.926 2636.43 725.784 2625.11C713.663 2602.64 701.699 2580.08 689.794 2557.49C686.55 2551.37 683.306 2545.24 679.964 2538.93C639.053 2461.14 602.788 2381.4 567.429 2300.96C563.386 2291.81 559.344 2282.66 555.178 2273.24C551.463 2264.66 547.747 2256.09 543.919 2247.26C540.583 2239.6 537.248 2231.93 533.811 2224.03C526.641 2204.12 526.641 2204.12 526.641 2176.94C508.694 2185.91 490.747 2194.88 472.257 2204.12C475.248 2174.22 478.239 2144.32 481.321 2113.51C420.568 2083.15 367.706 2092.59 305.209 2113.23C206.397 2152.86 109.914 2224.29 62.3565 2321.24C52.4456 2347.67 49.3701 2366.68 55.3106 2394.39C79.1698 2420.01 102.811 2425.91 136.887 2430.64C139.878 2439.61 142.869 2448.58 145.951 2457.82C128.401 2458.8 110.834 2459.5 93.2663 2460.08C83.4867 2460.51 73.7071 2460.93 63.6311 2461.36C37.1826 2457.82 37.1826 2457.82 20.6832 2441.54C3.94335 2410.29 -2.60243 2384.02 0.926381 2349.09C43.6187 2218.91 146.471 2139.09 263.784 2077.27C334.75 2042.56 420.679 2033.39 494.917 2062.54Z" fill="#323130"/>
<path d="M408.808 2738.7C436.93 2749.51 455.434 2765.03 476.364 2786.34C481.972 2792.01 487.581 2797.67 493.359 2803.51C499.107 2809.41 504.856 2815.31 510.779 2821.38C516.668 2827.35 522.556 2833.32 528.624 2839.47C543.111 2854.16 557.555 2868.9 571.961 2883.68C578.773 2880.66 585.585 2877.65 592.603 2874.54C625.775 2862.46 646.753 2865.97 680.73 2874.61C702.823 2891.04 702.823 2891.04 716.986 2910.86C716.986 2922.82 716.986 2934.78 716.986 2947.1C724.09 2949.34 731.194 2951.59 738.513 2953.9C762.306 2965.22 762.306 2965.22 774.769 2980.51C783.049 3011.14 778.611 3034.27 771.37 3064.89C758.341 3082.45 758.341 3082.45 744.178 3092.07C738.196 3092.07 732.213 3092.07 726.05 3092.07C729.041 3101.04 732.032 3110.01 735.114 3119.26C711.849 3127.9 701.023 3129.02 677.083 3121.2C618.411 3091.65 582.684 3066.23 551.567 3007.13C544.769 2983.34 544.769 2983.34 543.636 2948.8C539.092 2904.86 514.138 2884.82 482.56 2856.14C459.331 2834.83 439.814 2811.54 419.926 2787.16C408.997 2773.68 408.997 2773.68 390.68 2765.89C390.68 2759.91 390.68 2753.93 390.68 2747.76C396.663 2744.77 402.645 2741.78 408.808 2738.7Z" fill="#2B2C2C"/>
<path d="M490.385 2113.51C486.893 2169.37 467.989 2203.99 436.001 2249.42C409.868 2225.12 397.549 2199.73 381.616 2167.88C354.15 2154.15 329.724 2154.08 300.04 2158.81C240.237 2179.87 186.363 2210.72 155.015 2267.54C148.565 2300.37 148.114 2319.28 165.318 2348.42C173.347 2359.53 181.706 2370.4 190.422 2380.98C200.335 2394.39 200.335 2394.39 200.335 2412.52C172.695 2421.73 152.262 2423.37 123.291 2423.84C114.598 2424.08 105.905 2424.31 96.9487 2424.55C73.4388 2421.58 73.4388 2421.58 56.7978 2410.18C39.5877 2384.43 43.9191 2364.86 48.4419 2335.18C61.4972 2292.73 88.7126 2263.15 118.759 2231.3C124.659 2225.03 130.56 2218.76 136.639 2212.29C219.208 2132.22 381.427 2031.82 490.385 2113.51Z" fill="#F3F3F3"/>
<path d="M1985.95 274.174C2103.99 282.914 2188.04 336.459 2268.64 420.845C2333.77 497.375 2365.12 584.561 2384.77 681.909C2386.35 688.774 2387.93 695.639 2389.55 702.711C2394.21 729.374 2394.86 754.13 2394.72 781.188C2394.69 791.262 2394.66 801.336 2394.63 811.715C2394.52 827.351 2394.52 827.351 2394.4 843.304C2394.36 853.903 2394.32 864.503 2394.28 875.424C2394.17 901.527 2394.02 927.629 2393.83 953.732C2384.86 953.732 2375.89 953.732 2366.64 953.732C2365.75 942.881 2364.87 932.031 2363.95 920.851C2348.32 744.545 2311.3 569.452 2185.36 437.268C2185.36 431.288 2185.36 425.308 2185.36 419.147C2180.04 416.776 2174.73 414.405 2169.25 411.962C2148.06 400.459 2134.04 387.783 2116.81 371.011C2075.11 333.34 2028.69 312.952 1976.89 292.296C1979.88 286.316 1982.87 280.336 1985.95 274.174Z" fill="#F3F3F3"/>
<path d="M363.488 2149.75C369.47 2155.73 375.453 2161.71 381.616 2167.88C360.678 2194.79 339.74 2221.7 318.168 2249.42C330.132 2252.41 342.097 2255.4 354.424 2258.48C363.398 2252.5 372.371 2246.52 381.616 2240.36C390.68 2249.42 390.68 2249.42 394.787 2274.44C390.68 2303.79 390.68 2303.79 366.179 2326.61C355.589 2333.73 344.865 2340.65 334.03 2347.39C326.056 2352.74 326.056 2352.74 317.92 2358.2C291.625 2375.42 267.95 2389.66 236.592 2394.39C224.627 2376.45 212.662 2358.51 200.335 2340.03C200.335 2349 200.335 2357.97 200.335 2367.21C183.34 2364.38 183.34 2364.38 164.079 2358.15C140.857 2323.33 139.845 2308.91 145.951 2267.54C190.22 2192.55 274.94 2136.84 363.488 2149.75Z" fill="#2D2B29"/>
<path d="M4451.37 1732.96C4483.56 1738.96 4511.87 1747.23 4542.01 1760.14C4529.34 1830.5 4511.29 1898.71 4491.59 1967.41C4485.91 1987.39 4480.24 2007.38 4474.56 2027.36C4472.07 2036.09 4469.57 2044.81 4467 2053.8C4461.45 2073.64 4456.24 2093.49 4451.37 2113.51C4434.94 2111.81 4434.94 2111.81 4415.12 2104.45C4400.95 2082.93 4400.95 2082.93 4387.92 2059.15C4382.69 2055.03 4377.45 2050.92 4372.06 2046.69C4360.73 2031.96 4360.73 2031.96 4363.38 2002.94C4369.4 1970.67 4377.6 1941.72 4388.53 1910.81C4392.18 1900.39 4395.83 1889.96 4399.59 1879.22C4403.4 1868.52 4407.22 1857.81 4411.15 1846.78C4415 1835.83 4418.85 1824.88 4422.82 1813.6C4432.28 1786.7 4441.8 1759.82 4451.37 1732.96Z" fill="#F5F5F4"/>
<path d="M4288.22 2149.75C4306.35 2149.75 4306.35 2149.75 4321.08 2159.95C4338.92 2184.27 4336.67 2201.9 4333.54 2231.3C4327.56 2237.28 4321.57 2243.26 4315.41 2249.42C4313.22 2267.37 4313.22 2267.37 4314.28 2286.8C4314.65 2298.38 4315.03 2309.97 4315.41 2321.91C4333.36 2330.88 4351.3 2339.85 4369.8 2349.09C4364.68 2404.04 4354.92 2499.87 4315.41 2539.37C4263.72 2544.43 4238.29 2534.89 4197.58 2503.12C4209.64 2422.59 4233.69 2344.63 4262.73 2268.68C4277.9 2228.53 4284.99 2192.48 4288.22 2149.75Z" fill="#F4F3F2"/>
<path d="M2683.88 518.815C2772.71 597.165 2822.49 718.218 2831.7 835.199C2831.74 862.802 2831.03 889.974 2828.91 917.489C2801.58 926.595 2783.21 927.486 2754.7 927.116C2746.53 927.034 2738.36 926.952 2729.95 926.868C2723.72 926.763 2717.49 926.658 2711.08 926.55C2711.29 917.395 2711.29 917.396 2711.51 908.056C2713.75 797.051 2714.76 690.927 2689.83 582.347C2683.88 555.058 2683.88 555.058 2683.88 518.815Z" fill="#F2F3F2"/>
<path d="M961.715 2910.86C990.231 2931.59 1013.67 2953.87 1036.49 2980.51C1093.72 3047.09 1155.59 3105.41 1224.11 3160.24C1262.17 3191.13 1299.2 3223.18 1336.22 3255.3C1358.82 3274.83 1380.96 3292.94 1405.85 3309.53C1405.53 3383.25 1384.64 3439.31 1342.4 3499.81C1333.43 3505.79 1324.46 3511.77 1315.21 3517.93C1305.99 3488.85 1304.5 3476.32 1317.16 3447.99C1322.31 3439.68 1327.47 3431.36 1332.77 3422.79C1347.87 3398.32 1359.31 3378.17 1365.88 3350.16C1357.49 3314.85 1330.93 3300.14 1302.75 3280.08C1291.02 3271.33 1279.31 3262.56 1267.63 3253.75C1258.93 3247.25 1258.93 3247.25 1250.06 3240.62C1219.53 3217.14 1191.5 3191 1163.18 3164.95C1144.68 3147.98 1125.82 3131.59 1106.74 3115.29C1046.23 3062.42 984.174 3008.12 943.587 2938.04C949.569 2929.07 955.551 2920.1 961.715 2910.86Z" fill="#333332"/>
<path d="M2221.62 1968.54C2233.58 1971.53 2245.55 1974.52 2257.87 1977.6C2257.87 1985.82 2257.87 1994.04 2257.87 2002.52C2263.76 2031.53 2263.76 2031.53 2280.5 2042.69C2299.78 2052.65 2319.12 2060.6 2339.45 2068.21C2346 2070.93 2352.56 2073.65 2359.31 2076.45C2463.02 2114.17 2585.41 2096.64 2692.95 2086.33C2697.43 2104.27 2697.43 2104.27 2702.01 2122.57C2639.69 2144.45 2583.89 2154.47 2517.9 2153.72C2509.63 2153.67 2501.36 2153.62 2492.85 2153.57C2412.96 2151.78 2345.6 2135.35 2274.12 2098.54C2250.39 2084.33 2250.39 2084.33 2228.42 2088.59C2216.92 2093.52 2205.61 2098.86 2194.42 2104.45C2176.3 2104.81 2158.16 2104.84 2140.04 2104.45C2140.04 2098.47 2140.04 2092.49 2140.04 2086.33C2148.45 2079.97 2156.87 2073.62 2165.53 2067.07C2200.39 2039.64 2208.87 2010.3 2221.62 1968.54Z" fill="#F1F1F1"/>
<path d="M2276 564.119C2303.46 595.405 2314.71 629.705 2326.42 668.884C2329.36 678.586 2329.36 678.586 2332.36 688.483C2358.84 777.939 2369.58 860.26 2366.64 953.732C2375.62 953.732 2384.59 953.732 2393.83 953.732C2393.83 920.841 2393.83 887.951 2393.83 854.063C2396.82 854.063 2399.82 854.063 2402.9 854.063C2402.9 880.974 2402.9 907.884 2402.9 935.61C2411.87 935.61 2420.84 935.61 2430.09 935.61C2430.09 875.809 2430.09 816.008 2430.09 754.395C2433.08 754.395 2436.07 754.395 2439.15 754.395C2439.15 817.186 2439.15 879.977 2439.15 944.671C2478.04 944.671 2516.92 944.671 2556.99 944.671C2556.99 947.661 2556.99 950.651 2556.99 953.732C2550.55 954.281 2544.11 954.83 2537.48 955.395C2529.15 956.155 2520.82 956.914 2512.23 957.696C2503.93 958.432 2495.62 959.168 2487.06 959.926C2466.69 960.622 2466.69 960.622 2457.28 971.853C2511.12 974.844 2564.96 977.834 2620.43 980.914C2620.43 983.904 2620.43 986.894 2620.43 989.975C2524.72 989.975 2429 989.975 2330.39 989.975C2330.39 981.005 2330.39 972.035 2330.39 962.793C2258.6 962.793 2186.81 962.793 2112.85 962.793C2112.85 959.803 2112.85 956.813 2112.85 953.732C2181.64 953.732 2250.44 953.732 2321.32 953.732C2318.41 878.823 2312.39 808.731 2295.26 735.707C2293.8 729.354 2292.34 723.001 2290.83 716.455C2281.26 677.737 2266.92 644.792 2248.81 609.423C2250.51 588.47 2250.51 588.47 2257.87 573.18C2263.86 570.19 2269.84 567.2 2276 564.119Z" fill="#323131"/>
<path d="M2167.23 1243.68C2236.6 1257.87 2303.78 1275.95 2371.17 1297.47C2378.53 1299.82 2385.88 1302.16 2393.46 1304.58C2426.58 1315.2 2459.63 1325.98 2492.58 1337.12C2507.92 1342.16 2507.92 1342.16 2523.56 1347.31C2536.69 1351.78 2536.69 1351.78 2550.08 1356.33C2586.63 1363.83 2615.63 1360.48 2648.05 1341.61C2653.15 1337.51 2658.24 1333.41 2663.49 1329.19C2691.28 1307.1 2691.28 1307.1 2711.08 1307.1C2717.06 1322.05 2723.04 1337 2729.2 1352.41C2714.03 1363.16 2698.71 1373.68 2683.32 1384.12C2670.54 1392.95 2670.54 1392.95 2657.51 1401.96C2603.63 1428.65 2552.82 1414.61 2497.93 1396.97C2491.62 1395.02 2485.3 1393.07 2478.8 1391.07C2458.76 1384.87 2438.76 1378.55 2418.76 1372.23C2392.47 1364.02 2366.17 1355.86 2339.87 1347.7C2333.58 1345.73 2327.28 1343.77 2320.79 1341.74C2269.93 1325.94 2218.77 1311.48 2167.23 1298.04C2157.04 1264.06 2157.04 1264.06 2167.23 1243.68Z" fill="#F1F0EE"/>
<path d="M4859.25 1560.8C4873.14 1563.09 4886.92 1566.02 4900.61 1569.3C4908.1 1571.06 4915.59 1572.83 4923.3 1574.64C4931.98 1576.76 4931.98 1576.76 4940.83 1578.92C4957.18 1626.33 4935.95 1666.54 4920.44 1712.01C4917.6 1720.84 4914.76 1729.68 4911.83 1738.78C4909.02 1747.17 4906.2 1755.56 4903.3 1764.21C4899.44 1775.75 4899.44 1775.75 4895.5 1787.52C4886.45 1805.44 4886.45 1805.44 4859.25 1814.5C4840.74 1809.44 4840.74 1809.44 4821.3 1801.48C4811.57 1797.57 4811.57 1797.57 4801.65 1793.59C4796.73 1791.52 4791.81 1789.45 4786.74 1787.32C4792.16 1736.27 4805.4 1691.6 4823 1643.48C4825.47 1636.5 4827.95 1629.51 4830.5 1622.32C4848.88 1571.17 4848.88 1571.17 4859.25 1560.8Z" fill="#F6F5F5"/>
<path d="M1777.48 944.671C1803.48 941.698 1803.48 941.698 1837.81 942.406C1844.13 942.512 1850.46 942.618 1856.97 942.727C1878.82 943.177 1900.66 943.891 1922.5 944.671C1930.61 944.956 1938.71 945.241 1947.06 945.534C2009.89 947.849 2072.7 950.753 2135.51 953.732C2154.5 954.608 2173.49 955.481 2192.48 956.351C2238.45 958.464 2284.42 960.617 2330.39 962.793C2330.39 971.763 2330.39 980.733 2330.39 989.975C2259.26 990.435 2188.13 990.752 2117.01 990.97C2092.82 991.051 2068.64 991.185 2044.45 991.342C2009.64 991.562 1974.84 991.665 1940.03 991.745C1929.25 991.838 1918.48 991.932 1907.38 992.028C1854.45 992.035 1809.22 990.149 1759.35 971.853C1765.33 962.883 1771.32 953.913 1777.48 944.671Z" fill="#222221"/>
<path d="M1967.82 301.357C2033.28 303.736 2070.57 325.246 2121.91 364.782C2127.53 369.01 2133.15 373.238 2138.94 377.594C2194.67 422.211 2244.02 482.059 2276 545.997C2276 554.967 2276 563.938 2276 573.18C2270.02 573.18 2264.04 573.18 2257.87 573.18C2257.87 579.16 2257.87 585.14 2257.87 591.301C2251.89 591.301 2245.91 591.301 2239.75 591.301C2229.51 574.862 2220.01 557.965 2210.85 540.901C2152.53 438.598 2070.78 374.246 1958.76 337.6C1961.75 325.639 1964.74 313.679 1967.82 301.357Z" fill="#313030"/>
<path d="M4360.73 2385.33C4372.7 2388.32 4384.66 2391.31 4396.99 2394.39C4385.46 2453.96 4371.27 2512.61 4342.6 2566.55C4311.46 2587.3 4297.65 2585.6 4261.59 2579.96C4223.98 2571.2 4182.74 2554.55 4161.32 2521.24C4157.79 2481.68 4157.12 2464.12 4179.45 2430.64C4185.43 2430.64 4191.41 2430.64 4197.58 2430.64C4202.81 2450.82 4207 2469.9 4209.48 2490.66C4213.68 2512.87 4213.68 2512.87 4230.44 2524.08C4258.39 2533.25 4258.39 2533.25 4315.41 2530.31C4330.37 2482.46 4345.32 2434.62 4360.73 2385.33Z" fill="#383737"/>
<path d="M82.5028 2485C135.739 2488.21 164.486 2504 202.601 2539.37C212.849 2548.48 223.105 2557.59 233.37 2566.69C238.448 2571.25 243.526 2575.81 248.758 2580.51C271.035 2600.11 294.334 2618.37 317.601 2636.77C355.951 2667.88 387.353 2699.95 417.872 2738.7C399.926 2747.67 399.926 2747.67 381.616 2756.83C377.538 2752.54 373.461 2748.25 369.259 2743.84C327.469 2700.89 283.504 2662.5 236.839 2624.95C205.885 2599.95 175.284 2574.58 144.818 2548.99C139.663 2544.71 134.508 2540.42 129.197 2536.01C92.6181 2505.23 92.6181 2505.23 82.5028 2485Z" fill="#313131"/>
<path d="M1297.08 3481.69C1303.07 3481.69 1309.05 3481.69 1315.21 3481.69C1319.18 3500.37 1319.18 3500.37 1315.21 3526.99C1268.04 3596.67 1185.99 3628.48 1110.14 3657.24C1069.47 3664.77 1030.14 3664.39 988.907 3662.9C988.907 3659.91 988.907 3656.92 988.907 3653.84C1020.31 3649.36 1020.31 3649.36 1052.36 3644.78C1052.36 3641.79 1052.36 3638.8 1052.36 3635.72C1034.41 3632.73 1016.46 3629.74 997.971 3626.66C997.971 3623.67 997.971 3620.68 997.971 3617.6C1008.33 3617.25 1008.33 3617.25 1018.9 3616.89C1120.21 3611.33 1200.26 3580.38 1272.16 3506.6C1280.38 3498.38 1288.61 3490.16 1297.08 3481.69Z" fill="#323232"/>
<path d="M2330.39 1352.41C2393.72 1355.86 2450.4 1371.56 2510.6 1390.32C2547.11 1401.62 2582.44 1410.57 2620.43 1415.83C2624.92 1433.77 2624.92 1433.77 2629.5 1452.07C2595.92 1460.75 2574.14 1460.97 2540.98 1451.08C2532.91 1448.72 2524.84 1446.36 2516.52 1443.93C2508.19 1441.39 2499.86 1438.84 2491.27 1436.22C2483.08 1433.81 2474.89 1431.41 2466.45 1428.93C2414.68 1413.59 2363.37 1397 2312.26 1379.59C2318.24 1376.6 2324.22 1373.61 2330.39 1370.53C2330.39 1364.55 2330.39 1358.57 2330.39 1352.41Z" fill="#3A3735"/>
<path d="M1532.75 899.367C1556.36 902.165 1579.96 905.001 1603.56 907.862C1610.25 908.65 1616.94 909.439 1623.83 910.251C1652.1 913.703 1677.87 917.522 1704.97 926.55C1726.65 928.594 1748.38 930.251 1770.11 931.646C1787.41 932.785 1787.41 932.785 1805.06 933.947C1813.91 934.496 1822.75 935.045 1831.86 935.61C1831.86 938.6 1831.86 941.59 1831.86 944.671C1810.93 950.651 1789.99 956.631 1768.41 962.793C1790.85 967.278 1790.85 967.278 1813.74 971.853C1813.74 974.844 1813.74 977.834 1813.74 980.914C1757.29 982.358 1704.07 977.055 1648.32 968.456C1640.3 967.311 1632.29 966.166 1624.03 964.987C1616.29 963.819 1608.56 962.651 1600.59 961.448C1593.65 960.404 1586.7 959.36 1579.55 958.284C1558.81 953.469 1542.28 945.845 1523.69 935.61C1526.68 923.65 1529.67 911.69 1532.75 899.367Z" fill="#373636"/>
<path d="M2276 564.119C2303.91 595.774 2315.04 630.915 2326.99 670.583C2328.95 676.727 2330.91 682.87 2332.93 689.2C2346.13 732.02 2353.08 773.244 2357.58 817.82C2342.47 817.82 2327.36 817.82 2312.26 817.82C2308.8 802.088 2308.8 802.088 2305.28 786.037C2302.13 772.091 2298.98 758.146 2295.83 744.202C2294.33 737.31 2292.83 730.419 2291.28 723.319C2281.79 681.785 2268.65 647.428 2248.81 609.423C2250.51 588.47 2250.51 588.47 2257.87 573.18C2263.86 570.19 2269.84 567.2 2276 564.119Z" fill="#3A3A39"/>
<path d="M381.616 2050.08C424.325 2046.67 454.797 2045.89 493.784 2065.38C518.31 2086.97 532.169 2101.54 544.769 2131.63C546.469 2166.18 546.469 2166.18 544.769 2195.06C538.787 2195.06 532.804 2195.06 526.641 2195.06C526.641 2189.08 526.641 2183.1 526.641 2176.94C508.694 2185.91 490.747 2194.88 472.257 2204.12C475.248 2174.22 478.239 2144.32 481.321 2113.51C449.835 2097.77 435.31 2092.66 402.01 2089.73C391.144 2088.71 391.144 2088.71 380.058 2087.67C374.59 2087.23 369.122 2086.79 363.488 2086.33C369.47 2074.37 375.453 2062.41 381.616 2050.08Z" fill="#2F2D2D"/>
<path d="M372.552 2240.36C378.534 2243.35 384.517 2246.34 390.68 2249.42C394.221 2273.88 394.221 2273.88 390.68 2303.79C371.606 2321.56 355.763 2333.88 334.03 2347.39C328.714 2350.96 323.397 2354.53 317.92 2358.2C291.625 2375.42 267.95 2389.66 236.592 2394.39C227.618 2379.44 218.645 2364.49 209.399 2349.09C217.38 2345.04 225.36 2340.98 233.582 2336.81C244.109 2331.33 254.637 2325.85 265.483 2320.21C281.099 2312.17 281.099 2312.17 297.03 2303.96C328.174 2285.09 348.165 2266.94 372.552 2240.36Z" fill="#F0EDEA"/>
<path d="M2230.68 192.627C2307.91 185.972 2368.38 209.751 2439.15 237.931C2436.16 252.882 2433.17 267.832 2430.09 283.235C2423.97 281.378 2417.85 279.521 2411.54 277.608C2403.45 275.166 2395.37 272.725 2387.04 270.21C2379.04 267.792 2371.05 265.375 2362.82 262.884C2327.89 252.675 2296.47 245.761 2260 244.125C2251.94 243.746 2243.87 243.366 2235.57 242.975C2227.22 242.619 2218.88 242.262 2210.29 241.895C2201.8 241.504 2193.32 241.113 2184.58 240.71C2163.69 239.751 2142.8 238.826 2121.91 237.931C2121.91 234.941 2121.91 231.951 2121.91 228.87C2166.78 228.87 2211.65 228.87 2257.87 228.87C2257.87 219.9 2257.87 210.93 2257.87 201.688C2248.9 198.698 2239.93 195.708 2230.68 192.627Z" fill="#3C3C3C"/>
<path d="M4560.14 1379.59C4606.49 1389.27 4651.44 1399.8 4696.1 1415.83C4699.09 1409.85 4702.08 1403.87 4705.16 1397.71C4705.16 1412.66 4705.16 1427.61 4705.16 1443.01C4713.95 1447.31 4722.74 1451.61 4731.79 1456.04C4759.55 1470.2 4759.55 1470.2 4768.61 1479.26C4768.98 1500.4 4769 1521.54 4768.61 1542.68C4762.63 1530.72 4756.65 1518.76 4750.49 1506.44C4741.51 1510.92 4741.51 1510.92 4732.36 1515.5C4729.03 1511.42 4725.7 1507.35 4722.27 1503.15C4699.63 1483.52 4677.59 1477.38 4649.08 1468.5C4634.31 1463.82 4634.31 1463.82 4619.23 1459.05C4611.7 1456.75 4604.16 1454.44 4596.4 1452.07C4602.38 1449.08 4608.36 1446.09 4614.52 1443.01C4611.53 1434.04 4608.54 1425.07 4605.46 1415.83C4582.76 1404.79 4582.76 1404.79 4560.14 1397.71C4560.14 1391.73 4560.14 1385.75 4560.14 1379.59Z" fill="#40403F"/>
<path d="M363.488 2149.75C369.47 2155.73 375.453 2161.71 381.616 2167.88C371.886 2181.15 362.045 2194.35 352.158 2207.52C346.69 2214.87 341.222 2222.23 335.588 2229.81C318.423 2249.13 305.63 2258 281.912 2267.54C261.121 2236.37 254.72 2224.75 254.72 2186C248.737 2183.01 242.755 2180.02 236.592 2176.94C281.1 2155.14 312.765 2144.78 363.488 2149.75Z" fill="#43403F"/>
<path d="M4523.88 1823.57C4545.86 1845.54 4547.57 1856.49 4551.08 1886.99C4546.24 1921.52 4536.44 1954.75 4527.28 1988.36C4525.03 1997.51 4522.77 2006.66 4520.45 2016.09C4518.1 2024.82 4515.75 2033.55 4513.33 2042.55C4511.23 2050.51 4509.14 2058.48 4506.97 2066.69C4496.69 2086.33 4496.69 2086.33 4472.99 2098.13C4465.86 2100.21 4458.72 2102.3 4451.37 2104.45C4463.23 2039.44 4479.21 1976.42 4497.82 1913.04C4500.34 1904.37 4502.85 1895.71 4505.44 1886.78C4511.55 1865.7 4517.7 1844.63 4523.88 1823.57Z" fill="#363535"/>
<path d="M4415.12 1370.53C4412.12 1373.52 4409.13 1376.51 4406.05 1379.59C4418.02 1385.57 4429.98 1391.55 4442.31 1397.71C4434.62 1399.15 4426.93 1400.58 4419.01 1402.06C4338.64 1418.04 4264.92 1440.83 4188.51 1470.2C4188.51 1455.25 4188.51 1440.3 4188.51 1424.89C4219.43 1413.98 4250.42 1403.28 4281.42 1392.61C4294.58 1387.96 4294.58 1387.96 4308.01 1383.22C4316.48 1380.33 4324.95 1377.43 4333.68 1374.46C4341.47 1371.75 4349.25 1369.05 4357.27 1366.26C4380.36 1361.13 4393.03 1362.82 4415.12 1370.53Z" fill="#2E2E2E"/>
<path d="M2411.96 681.909C2417.94 681.909 2423.93 681.909 2430.09 681.909C2430.09 765.63 2430.09 849.352 2430.09 935.61C2421.12 935.61 2412.14 935.61 2402.9 935.61C2395 881.345 2392.6 827.84 2392.13 773.083C2392.02 766.216 2391.9 759.349 2391.78 752.274C2391.75 734.846 2392.72 717.423 2393.83 700.03C2399.82 694.05 2405.8 688.07 2411.96 681.909Z" fill="#302F2F"/>
<path d="M4333.54 1515.5C4376.59 1522.3 4376.59 1522.3 4396.99 1542.68C4396.83 1569.14 4395.72 1594.54 4393.59 1620.83C4393.07 1628.1 4392.56 1635.36 4392.03 1642.85C4390.75 1660.81 4389.35 1678.76 4387.92 1696.71C4375.96 1693.72 4363.99 1690.73 4351.67 1687.65C4340.51 1649.24 4344.82 1617.54 4351.14 1578.82C4351.31 1572.87 4351.49 1566.93 4351.67 1560.8C4345.68 1554.82 4339.7 1548.84 4333.54 1542.68C4333.54 1533.71 4333.54 1524.74 4333.54 1515.5Z" fill="#2F2E2F"/>
<path d="M1541.81 700.03C1553.77 719.801 1560.43 731.438 1558.07 754.784C1556.25 761.197 1554.44 767.609 1552.58 774.215C1541.83 815.958 1536.84 856.471 1532.75 899.367C1529.76 899.367 1526.77 899.367 1523.69 899.367C1523.69 881.427 1523.69 863.487 1523.69 845.003C1517.7 845.003 1511.72 845.003 1505.56 845.003C1502.57 859.953 1499.58 874.903 1496.49 890.307C1493.5 890.307 1490.51 890.307 1487.43 890.307C1484.03 830.193 1491.65 774.275 1514.62 718.152C1523.59 712.172 1532.57 706.192 1541.81 700.03Z" fill="#373838"/>
<path d="M37.1827 2330.97C40.1738 2330.97 43.1649 2330.97 46.2467 2330.97C46.9945 2340.87 47.7423 2350.78 48.5127 2360.98C52.2042 2394.04 52.2042 2394.04 71.1728 2411.38C93.1737 2422.38 112.59 2427.26 136.887 2430.64C139.878 2439.61 142.869 2448.58 145.951 2457.82C128.401 2458.8 110.834 2459.5 93.2663 2460.08C78.5969 2460.72 78.5969 2460.72 63.6311 2461.36C37.1826 2457.82 37.1827 2457.82 20.1876 2441.68C5.86523 2413.44 8.1935 2389.29 9.99052 2358.15C18.9639 2355.16 27.9373 2352.17 37.1827 2349.09C37.1827 2343.11 37.1827 2337.13 37.1827 2330.97Z" fill="#302F2F"/>
<path d="M218.463 2240.36C230.932 2252.05 243.006 2264.16 254.72 2276.6C254.72 2282.58 254.72 2288.56 254.72 2294.73C246.494 2298.46 238.268 2302.2 229.794 2306.05C202.179 2320.92 184.824 2335.02 164.079 2358.15C142.059 2325.13 144.485 2306.39 145.951 2267.54C154.925 2272.03 154.925 2272.03 164.079 2276.6C168.005 2272.31 171.931 2268.01 175.976 2263.58C191.271 2249.42 191.271 2249.42 218.463 2240.36Z" fill="#363332"/>
<path d="M4542.01 1343.34C4600.03 1347.56 4644.14 1362.8 4696.1 1388.65C4696.1 1397.62 4696.1 1406.59 4696.1 1415.83C4690.12 1415.83 4684.14 1415.83 4677.97 1415.83C4674.98 1421.81 4671.99 1427.79 4668.91 1433.95C4668.91 1424.98 4668.91 1416.01 4668.91 1406.77C4663.34 1405.57 4657.76 1404.36 4652.02 1403.12C4644.69 1401.52 4637.37 1399.92 4629.82 1398.28C4622.56 1396.7 4615.31 1395.12 4607.83 1393.5C4587.33 1388.65 4587.33 1388.65 4560.14 1379.59C4557.15 1385.57 4554.16 1391.55 4551.08 1397.71C4551.08 1391.73 4551.08 1385.75 4551.08 1379.59C4536.12 1382.58 4521.16 1385.57 4505.76 1388.65C4511.74 1385.66 4517.72 1382.67 4523.88 1379.59C4534.16 1361.32 4534.16 1361.32 4542.01 1343.34Z" fill="#363434"/>
<path d="M381.616 2059.15C379.775 2076.35 379.775 2076.35 372.552 2095.39C353.433 2104.24 353.433 2104.24 329.498 2110.11C302.973 2116.91 280.655 2123.17 255.853 2135.03C249.496 2136.9 243.14 2138.77 236.592 2140.69C217.26 2127.46 217.26 2127.46 200.335 2113.51C217.685 2104.59 235.063 2095.73 252.454 2086.89C262.128 2081.95 271.803 2077.01 281.77 2071.92C319.451 2054.31 341.602 2046.29 381.616 2059.15Z" fill="#3E3E3E"/>
<path d="M726.05 2548.43C748.639 2577.42 768.206 2607.6 787.232 2639.03C792.981 2648.38 798.729 2657.72 804.652 2667.35C816.69 2693.4 816.69 2693.4 814 2714.92C811.896 2719.78 809.793 2724.64 807.626 2729.64C770.178 2717.16 760.038 2691.98 741.346 2659.42C737.858 2653.79 734.37 2648.16 730.777 2642.36C714.202 2613.75 706.377 2599.66 714.897 2566.97C718.577 2560.85 722.258 2554.73 726.05 2548.43Z" fill="#3A3A39"/>
<path d="M2194.42 446.329C2235.5 474.846 2254.34 501.892 2276 545.997C2276 554.967 2276 563.938 2276 573.18C2270.02 573.18 2264.04 573.18 2257.87 573.18C2257.87 579.16 2257.87 585.14 2257.87 591.301C2251.89 591.301 2245.91 591.301 2239.75 591.301C2223.46 568.791 2223.46 568.791 2205.75 539.202C2199.82 529.531 2193.88 519.86 2187.77 509.896C2176.3 482.572 2176.3 482.572 2183.52 460.911C2187.12 456.099 2190.72 451.287 2194.42 446.329Z" fill="#292828"/>
<path d="M2128.71 266.813C2163.27 280.429 2191.61 297.729 2221.62 319.478C2209.65 331.438 2197.69 343.399 2185.36 355.721C2180.76 352.661 2176.15 349.601 2171.41 346.448C2134.61 322.612 2101.18 304.037 2058.46 292.296C2064.45 289.306 2070.43 286.316 2076.59 283.235C2076.59 277.255 2076.59 271.275 2076.59 265.114C2094.72 256.053 2094.72 256.053 2128.71 266.813Z" fill="#363636"/>
<path d="M2692.95 663.787C2695.94 675.748 2698.93 687.708 2702.01 700.03C2707.99 700.03 2713.98 700.03 2720.14 700.03C2720.14 771.792 2720.14 843.553 2720.14 917.489C2717.15 917.489 2714.16 917.489 2711.08 917.489C2708.08 869.648 2705.09 821.807 2702.01 772.517C2688.44 786.084 2689.94 799.592 2687.85 818.387C2686.54 830.16 2685.23 841.933 2683.88 854.063C2680.89 854.063 2677.9 854.063 2674.82 854.063C2674.29 825.749 2673.97 797.436 2673.69 769.119C2673.53 761.06 2673.38 753 2673.23 744.697C2673.17 736.988 2673.11 729.28 2673.05 721.337C2672.95 714.22 2672.86 707.102 2672.76 699.769C2674.82 681.909 2674.82 681.909 2692.95 663.787Z" fill="#474645"/>
<path d="M4750.49 1497.38C4753.48 1497.38 4756.47 1497.38 4759.55 1497.38C4762.54 1512.33 4765.53 1527.28 4768.61 1542.68C4808.99 1551.65 4808.99 1551.65 4850.19 1560.8C4847.92 1586.85 4847.92 1586.85 4841.13 1615.17C4822.43 1627.63 4822.43 1627.63 4804.87 1633.29C4804.87 1621.33 4804.87 1609.37 4804.87 1597.05C4796.27 1594.43 4787.67 1591.81 4778.81 1589.12C4750.49 1578.92 4750.49 1578.92 4732.36 1560.8C4730.09 1538.15 4730.09 1538.15 4732.36 1515.5C4738.34 1509.52 4744.32 1503.54 4750.49 1497.38Z" fill="#272625"/>
<path d="M2176.86 190.928C2191.04 191.016 2191.04 191.016 2205.51 191.105C2230.68 192.627 2230.68 192.627 2257.87 201.688C2257.87 210.658 2257.87 219.628 2257.87 228.87C2172.63 233.355 2172.63 233.355 2085.66 237.931C2085.66 228.961 2085.66 219.991 2085.66 210.749C2116.67 191.848 2140.88 190.438 2176.86 190.928Z" fill="#1F2020"/>
<path d="M2430.09 754.395C2433.08 754.395 2436.07 754.395 2439.15 754.395C2439.15 817.186 2439.15 879.977 2439.15 944.671C2478.04 944.671 2516.92 944.671 2556.99 944.671C2556.99 947.661 2556.99 950.651 2556.99 953.732C2458.28 958.217 2458.28 958.217 2357.58 962.793C2357.58 923.922 2357.58 885.051 2357.58 845.003C2360.57 845.003 2363.56 845.003 2366.64 845.003C2366.64 880.883 2366.64 916.764 2366.64 953.732C2375.62 953.732 2384.59 953.732 2393.83 953.732C2393.83 920.841 2393.83 887.951 2393.83 854.063C2396.82 854.063 2399.82 854.063 2402.9 854.063C2402.9 880.974 2402.9 907.884 2402.9 935.61C2411.87 935.61 2420.84 935.61 2430.09 935.61C2430.09 875.809 2430.09 816.008 2430.09 754.395Z" fill="#6D6C6B"/>
<path d="M372.552 2167.87C378.534 2167.87 384.517 2167.87 390.68 2167.87C407.957 2196.98 410.827 2218.06 409.941 2251.69C409.778 2259.77 409.614 2267.85 409.446 2276.18C409.13 2285.36 409.13 2285.36 408.808 2294.73C390.68 2276.6 390.68 2276.6 372.552 2249.42C363.579 2255.4 354.605 2261.38 345.36 2267.54C333.396 2261.56 321.431 2255.58 309.104 2249.42C314.525 2242.69 319.947 2235.97 325.532 2229.04C337.452 2214.06 349.08 2198.83 360.089 2183.17C364.202 2178.12 368.315 2173.07 372.552 2167.87Z" fill="#3A3837"/>
<path d="M4841.13 1515.5C4879.27 1519.93 4913.8 1529.8 4949.89 1542.68C4952.89 1563.61 4955.88 1584.54 4958.96 1606.11C4953.35 1602 4947.74 1597.88 4941.96 1593.65C4903.73 1573.77 4865.24 1567.77 4823 1560.8C4830.93 1525.69 4830.93 1525.69 4841.13 1515.5Z" fill="#424242"/>
<path d="M2702.01 763.456C2705 763.456 2707.99 763.456 2711.08 763.456C2711.08 817.277 2711.08 871.098 2711.08 926.55C2699.11 929.54 2687.15 932.53 2674.82 935.61C2673.73 883.38 2674.84 833.125 2683.88 781.577C2689.87 775.597 2695.85 769.617 2702.01 763.456Z" fill="#1D1D1C"/>
<path d="M399.744 2303.79C402.735 2312.76 405.727 2321.73 408.808 2330.97C397.768 2341.46 386.601 2351.81 375.385 2362.12C366.078 2370.79 366.078 2370.79 356.584 2379.64C334.276 2395.86 318.094 2400.08 290.976 2403.45C291.695 2378.31 294.958 2362.98 313.494 2345.37C341.759 2324.67 365.092 2310.82 399.744 2303.79Z" fill="#312F2E"/>
<path d="M339.129 2661.69C373.327 2680.77 394.055 2708.1 417.872 2738.7C399.926 2747.67 399.926 2747.67 381.616 2756.83C351.403 2726.62 321.189 2696.42 290.976 2666.22C318.168 2657.16 318.168 2657.16 339.129 2661.69Z" fill="#393A39"/>
<path d="M290.976 2376.27C293.967 2388.23 296.958 2400.19 300.04 2412.52C283.841 2420.34 267.592 2428.06 251.321 2435.73C242.277 2440.04 233.234 2444.35 223.916 2448.79C216.134 2451.77 208.353 2454.75 200.335 2457.82C194.353 2454.83 188.371 2451.84 182.207 2448.76C185.198 2439.79 188.19 2430.82 191.271 2421.58C197.254 2421.58 203.236 2421.58 209.399 2421.58C209.399 2409.62 209.399 2397.66 209.399 2385.33C270.582 2376.27 270.582 2376.27 290.976 2376.27Z" fill="#3A3738"/>
<path d="M55.3107 2240.36C67.2752 2252.32 79.2398 2264.28 91.5669 2276.6C58.0241 2341.27 58.0241 2341.27 19.0545 2358.15C7.56091 2376.58 7.56091 2376.58 0.92644 2394.39C4.28335 2332.87 22.7233 2292.29 55.3107 2240.36Z" fill="#424240"/>
<path d="M354.424 2186C342.585 2221.5 328.761 2243.32 300.04 2267.54C294.058 2267.54 288.075 2267.54 281.912 2267.54C272.938 2249.6 263.965 2231.66 254.72 2213.18C313.636 2186 313.636 2186 354.424 2186Z" fill="#EBE9E8"/>
<path d="M4170.39 2430.64C4179.36 2430.64 4188.33 2430.64 4197.58 2430.64C4204.79 2457.05 4208.94 2482.7 4211.74 2509.92C4212.5 2517.16 4213.26 2524.4 4214.04 2531.86C4214.59 2537.33 4215.14 2542.8 4215.71 2548.43C4189.72 2543.23 4180.71 2540.62 4161.32 2521.24C4159.5 2487.78 4159.75 2462.54 4170.39 2430.64Z" fill="#323131"/>
<path d="M943.587 3581.35C955.551 3581.35 967.516 3581.35 979.843 3581.35C981.526 3587.15 983.208 3592.94 984.942 3598.91C997.45 3621.41 997.45 3621.41 1030.83 3624.39C1040.92 3625.14 1051.02 3625.89 1061.42 3626.66C1061.42 3635.63 1061.42 3644.6 1061.42 3653.84C1030.79 3656.43 1001.31 3657.87 970.779 3653.84C947.205 3628.2 943.587 3615.99 943.587 3581.35Z" fill="#302F30"/>
<path d="M2393.83 573.18C2417.35 608.439 2423.17 639.657 2421.03 681.909C2403.46 709.657 2403.46 709.657 2384.77 727.213C2380.97 710.08 2377.43 692.89 2374.01 675.68C2372.01 666.114 2370.01 656.548 2367.95 646.692C2366.4 613.305 2374.31 599.676 2393.83 573.18Z" fill="#343333"/>
<path d="M2711.08 1307.1C2717.06 1322.05 2723.04 1337 2729.2 1352.41C2688.82 1379.32 2688.82 1379.32 2647.63 1406.77C2641.64 1400.79 2635.66 1394.81 2629.5 1388.65C2633.99 1384.72 2638.47 1380.8 2643.09 1376.76C2659.7 1361.49 2659.7 1361.49 2656.69 1334.28C2686.9 1307.1 2686.9 1307.1 2711.08 1307.1Z" fill="#E9E8E8"/>
<path d="M2339.45 799.699C2357.58 817.82 2357.58 817.82 2359.35 845.357C2359.14 856.079 2358.93 866.801 2358.71 877.848C2358.55 888.617 2358.38 899.386 2358.21 910.481C2358 918.774 2357.79 927.066 2357.58 935.61C2348.6 935.61 2339.63 935.61 2330.39 935.61C2328.38 916.368 2326.52 897.111 2324.72 877.848C2323.67 867.126 2322.62 856.404 2321.53 845.357C2321.46 836.27 2321.39 827.183 2321.32 817.82C2327.3 811.84 2333.29 805.86 2339.45 799.699Z" fill="#1F1E1E"/>
<path d="M4288.22 2149.75C4306.35 2149.75 4306.35 2149.75 4321.08 2159.95C4333.54 2176.94 4333.54 2176.94 4338.07 2204.12C4333.54 2231.3 4333.54 2231.3 4310.88 2248.29C4303.4 2251.65 4295.92 2255.02 4288.22 2258.48C4274.34 2221.47 4282.5 2187.86 4288.22 2149.75Z" fill="#EAEAEA"/>
<path d="M2511.67 328.539C2569.68 331.884 2569.68 331.884 2597.21 360.818C2601.88 368.106 2606.56 375.394 2611.37 382.903C2605.39 382.903 2599.41 382.903 2593.24 382.903C2590.25 394.864 2587.26 406.824 2584.18 419.147C2569.07 404.045 2553.97 388.944 2538.86 373.843C2533.44 368.797 2528.02 363.751 2522.43 358.553C2511.67 346.66 2511.67 346.66 2511.67 328.539Z" fill="#393A39"/>
<path d="M1133.93 3617.6C1127.13 3635.15 1127.13 3635.15 1115.8 3653.84C1087.86 3663.82 1061.42 3663.86 1031.96 3663.47C1023.88 3663.39 1015.79 3663.3 1007.46 3663.22C1001.34 3663.12 995.215 3663.01 988.907 3662.9C988.907 3659.91 988.907 3656.92 988.907 3653.84C1020.31 3649.36 1020.31 3649.36 1052.36 3644.78C1052.36 3641.79 1052.36 3638.8 1052.36 3635.72C1025.44 3631.23 1025.44 3631.23 997.971 3626.66C997.971 3623.67 997.971 3620.68 997.971 3617.6C1015.53 3615.83 1033.09 3614.15 1050.66 3612.5C1060.44 3611.56 1070.22 3610.61 1080.29 3609.63C1106.74 3608.54 1106.74 3608.54 1133.93 3617.6Z" fill="#565556"/>
<path d="M1224.57 3182.68C1264.26 3187.26 1286.36 3211.48 1315.21 3237.05C1306.24 3246.02 1297.27 3254.99 1288.02 3264.23C1235.9 3231.38 1235.9 3231.38 1215.51 3200.8C1218.5 3194.82 1221.49 3188.84 1224.57 3182.68Z" fill="#393837"/>
<path d="M2330.39 1352.41C2343.61 1353.44 2356.83 1354.6 2370.04 1355.8C2381.08 1356.75 2381.08 1356.75 2392.35 1357.71C2411.96 1361.47 2411.96 1361.47 2430.09 1379.59C2411.96 1397.71 2411.96 1397.71 2392.98 1398.13C2385.79 1397.25 2378.59 1396.36 2371.17 1395.44C2360.38 1394.25 2360.38 1394.25 2349.36 1393.04C2330.39 1388.65 2330.39 1388.65 2312.26 1370.53C2318.24 1370.53 2324.22 1370.53 2330.39 1370.53C2330.39 1364.55 2330.39 1358.57 2330.39 1352.41Z" fill="#343230"/>
<path d="M2212.55 962.793C2251.44 962.793 2290.32 962.793 2330.39 962.793C2330.39 971.763 2330.39 980.733 2330.39 989.975C2273.55 989.975 2216.72 989.975 2158.17 989.975C2158.17 986.985 2158.17 983.995 2158.17 980.914C2176.12 977.924 2194.06 974.934 2212.55 971.853C2212.55 968.863 2212.55 965.873 2212.55 962.793Z" fill="#171616"/>
<path d="M2774.52 564.119C2798.49 592.438 2809.37 619.28 2819.84 654.727C2813.86 654.727 2807.88 654.727 2801.72 654.727C2798.72 663.697 2795.73 672.667 2792.65 681.909C2755.3 625.907 2755.3 625.907 2759.23 599.229C2765.46 582.24 2765.46 582.24 2774.52 564.119Z" fill="#353434"/>
<path d="M590.089 2267.54C616.924 2298.03 625.647 2328.17 635.41 2367.21C626.436 2376.18 617.463 2385.15 608.217 2394.39C601.625 2380.13 595.245 2365.76 588.956 2351.36C585.381 2343.37 581.806 2335.38 578.122 2327.15C571.961 2303.79 571.961 2303.79 579.963 2282.69C583.305 2277.69 586.646 2272.69 590.089 2267.54Z" fill="#3B3A39"/>
<path d="M2421.03 772.517C2424.02 772.517 2427.01 772.517 2430.09 772.517C2430.09 826.338 2430.09 880.158 2430.09 935.61C2421.12 935.61 2412.14 935.61 2402.9 935.61C2402.9 896.74 2402.9 857.869 2402.9 817.82C2405.89 817.82 2408.88 817.82 2411.96 817.82C2414.95 802.87 2417.94 787.92 2421.03 772.517Z" fill="#1F1F1E"/>
<path d="M1315.21 3481.69C1318.61 3501.51 1318.61 3501.51 1315.21 3526.99C1298.54 3545.02 1280.84 3557.71 1260.83 3572.29C1254.85 3569.3 1248.86 3566.31 1242.7 3563.23C1246.88 3525.66 1274.57 3481.69 1315.21 3481.69Z" fill="#393A39"/>
<path d="M4433.24 1723.9C4453.07 1726.73 4453.07 1726.73 4469.5 1732.96C4463.52 1732.96 4457.54 1732.96 4451.37 1732.96C4450.48 1738.63 4449.6 1744.31 4448.68 1750.16C4447.33 1757.56 4445.97 1764.97 4444.57 1772.6C4442.68 1783.64 4442.68 1783.64 4440.75 1794.9C4433.24 1814.5 4433.24 1814.51 4415.54 1825.62C4409.42 1827.93 4403.3 1830.24 4396.99 1832.63C4388.01 1837.11 4388.01 1837.11 4378.86 1841.69C4382.71 1827.12 4386.71 1812.59 4390.76 1798.08C4392.96 1789.99 4395.17 1781.89 4397.45 1773.55C4406.31 1750.41 4413.56 1738.75 4433.24 1723.9Z" fill="#3D3C3B"/>
<path d="M4415.12 1370.53C4412.12 1373.52 4409.13 1376.51 4406.05 1379.59C4418.02 1385.57 4429.98 1391.55 4442.31 1397.71C4403.42 1403.69 4364.54 1409.67 4324.48 1415.83C4321.48 1403.87 4318.49 1391.91 4315.41 1379.59C4382.74 1357.58 4382.74 1357.58 4415.12 1370.53Z" fill="#434342"/>
<path d="M4478.56 1361.47C4497.95 1380.84 4500.56 1389.85 4505.76 1415.83C4489.5 1411.75 4473.26 1407.58 4457.04 1403.37C4447.99 1401.06 4438.95 1398.75 4429.63 1396.36C4406.05 1388.65 4406.05 1388.65 4387.92 1370.53C4419.83 1359.89 4445.09 1359.64 4478.56 1361.47Z" fill="#313030"/>
<path d="M218.463 2240.36C230.932 2252.05 243.006 2264.16 254.72 2276.6C254.72 2282.58 254.72 2288.56 254.72 2294.73C228.38 2306.11 211.248 2312.85 182.207 2312.85C186.724 2279.44 192.184 2262.06 218.463 2240.36Z" fill="#E8E6E5"/>
<path d="M2212.55 328.539C2252.61 340.773 2270.05 358.087 2294.13 391.964C2239.75 391.964 2239.75 391.964 2215.39 369.312C2208.47 361.837 2201.55 354.362 2194.42 346.66C2200.41 340.68 2206.39 334.7 2212.55 328.539Z" fill="#2D2D2D"/>
<path d="M4850.19 1560.8C4847.92 1586.85 4847.92 1586.85 4841.13 1615.17C4822.43 1627.63 4822.43 1627.63 4804.87 1633.29C4804.87 1621.33 4804.87 1609.37 4804.87 1597.05C4798.89 1594.06 4792.9 1591.07 4786.74 1587.99C4789.73 1579.02 4792.72 1570.05 4795.81 1560.8C4818.38 1549.52 4826.72 1553.77 4850.19 1560.8Z" fill="#2D2C2B"/>
<path d="M4687.04 1696.71C4727.42 1705.69 4727.42 1705.69 4768.61 1714.84C4771.6 1708.86 4774.6 1702.88 4777.68 1696.71C4780.67 1705.69 4783.66 1714.66 4786.74 1723.9C4753.65 1738.49 4722.83 1746.09 4687.04 1751.08C4688.72 1745.47 4690.4 1739.87 4692.14 1734.09C4698.25 1714.46 4698.25 1714.46 4687.04 1696.71Z" fill="#3F3D3D"/>
<path d="M2215.39 2056.88C2223.42 2060.62 2231.46 2064.36 2239.75 2068.21C2213.72 2092.7 2200.68 2103.98 2164.4 2106.71C2156.36 2105.97 2148.32 2105.22 2140.04 2104.45C2140.04 2086.33 2140.04 2086.33 2159.3 2065.94C2185.36 2050.08 2185.36 2050.08 2215.39 2056.88Z" fill="#E7E8E7"/>
<path d="M4242.9 1506.44C4275.8 1506.44 4308.7 1506.44 4342.6 1506.44C4339.61 1518.4 4336.62 1530.36 4333.54 1542.68C4303.51 1544.95 4303.51 1544.95 4270.09 1542.68C4261.12 1530.72 4252.14 1518.76 4242.9 1506.44Z" fill="#3B3A3A"/>
<path d="M136.887 2430.64C139.878 2439.61 142.869 2448.58 145.951 2457.82C110.057 2457.82 74.1639 2457.82 37.1826 2457.82C40.1737 2448.85 43.1649 2439.88 46.2467 2430.64C76.004 2415.76 104.487 2425.94 136.887 2430.64Z" fill="#272525"/>
<path d="M4106.94 1524.56C4115.91 1527.55 4124.88 1530.54 4134.13 1533.62C4143.1 1533.62 4152.08 1533.62 4161.32 1533.62C4164.31 1539.6 4167.3 1545.58 4170.39 1551.74C4167.4 1560.71 4164.4 1569.68 4161.32 1578.92C4143.38 1578.92 4125.43 1578.92 4106.94 1578.92C4106.94 1560.98 4106.94 1543.04 4106.94 1524.56Z" fill="#383938"/>
<path d="M961.715 2910.86C976.671 2922.82 991.626 2934.78 1007.04 2947.1C1004.04 2959.06 1001.05 2971.02 997.971 2983.34C953.784 2958.43 953.784 2958.43 943.587 2938.04C949.569 2929.07 955.551 2920.1 961.715 2910.86Z" fill="#333232"/>
<path d="M2502.6 283.235C2532.19 299.582 2546.92 308.913 2566.05 337.6C2547.92 346.66 2547.92 346.66 2520.73 339.299C2493.54 328.539 2493.54 328.539 2475.41 310.417C2484.38 301.447 2493.36 292.477 2502.6 283.235Z" fill="#2F2F2F"/>
<path d="M4360.73 1624.23C4366.71 1624.23 4372.7 1624.23 4378.86 1624.23C4381.85 1648.15 4384.84 1672.07 4387.92 1696.71C4375.96 1693.72 4363.99 1690.73 4351.67 1687.65C4346 1666.13 4346 1666.13 4342.6 1642.35C4348.59 1636.37 4354.57 1630.39 4360.73 1624.23Z" fill="#212122"/>
<path d="M4949.89 1551.74C4961.86 1554.73 4973.82 1557.72 4986.15 1560.8C4987.28 1586.85 4987.28 1586.85 4986.15 1615.17C4980.17 1621.15 4974.19 1627.13 4968.02 1633.29C4962.04 1633.29 4956.06 1633.29 4949.89 1633.29C4949.89 1606.38 4949.89 1579.47 4949.89 1551.74Z" fill="#2A292A"/>
<path d="M2475.41 1424.89C2505.32 1430.87 2535.23 1436.85 2566.05 1443.01C2538.54 1461.35 2528.03 1464.05 2496.37 1466.8C2489.04 1467.48 2481.72 1468.15 2474.17 1468.85C2465.81 1469.52 2465.81 1469.52 2457.28 1470.2C2463.26 1455.25 2469.25 1440.3 2475.41 1424.89Z" fill="#E1DFDD"/>
<path d="M254.72 2222.24C268.316 2234.7 268.316 2234.7 281.912 2249.42C281.912 2255.4 281.912 2261.38 281.912 2267.54C287.894 2270.53 293.876 2273.52 300.04 2276.6C285.084 2282.58 270.129 2288.56 254.72 2294.73C236.773 2263.33 236.773 2263.33 218.463 2231.3C230.428 2234.29 242.393 2237.28 254.72 2240.36C254.72 2234.38 254.72 2228.4 254.72 2222.24Z" fill="#343332"/>
<path d="M4877.38 1805.44C4877.38 1814.41 4877.38 1823.38 4877.38 1832.63C4883.36 1838.61 4889.35 1844.59 4895.51 1850.75C4826.4 1842.82 4826.4 1842.82 4795.81 1832.63C4795.81 1826.65 4795.81 1820.67 4795.81 1814.5C4836.19 1810.02 4836.19 1810.02 4877.38 1805.44Z" fill="#403F3F"/>
<path d="M4904.57 1533.62C4919.53 1536.61 4934.49 1539.6 4949.89 1542.68C4952.89 1563.61 4955.88 1584.54 4958.96 1606.11C4934.37 1591.5 4910.25 1576.67 4886.45 1560.8C4892.43 1560.8 4898.41 1560.8 4904.57 1560.8C4904.57 1551.83 4904.57 1542.86 4904.57 1533.62Z" fill="#444343"/>
<path d="M1487.43 989.975C1501.32 992.258 1515.1 995.194 1528.78 998.469C1536.27 1000.23 1543.76 1002 1551.48 1003.81C1560.16 1005.93 1560.16 1005.93 1569.01 1008.1C1563.02 1012.39 1557.04 1016.69 1550.88 1021.12C1541.9 1028.13 1541.9 1028.13 1532.75 1035.28C1532.75 1038.27 1532.75 1041.26 1532.75 1044.34C1517.79 1044.34 1502.84 1044.34 1487.43 1044.34C1483.97 1029.33 1480.96 1014.22 1478.37 999.036C1481.36 996.046 1484.35 993.056 1487.43 989.975Z" fill="#2F2F2F"/>
<path d="M680.73 2512.18C692.694 2515.17 704.659 2518.16 716.986 2521.24C719.977 2539.19 722.968 2557.13 726.05 2575.61C717.076 2575.61 708.103 2575.61 698.858 2575.61C685.619 2551.62 680.73 2540.32 680.73 2512.18Z" fill="#2A2828"/>
<path d="M4940.83 1615.17C4949.8 1615.17 4958.78 1615.17 4968.02 1615.17C4973.69 1636.69 4973.69 1636.69 4977.09 1660.47C4958.96 1678.59 4958.96 1678.59 4922.7 1687.65C4928.68 1663.73 4934.67 1639.81 4940.83 1615.17Z" fill="#464545"/>
<path d="M1451.17 917.489C1460.15 926.459 1469.12 935.429 1478.37 944.671C1472.91 962.978 1466.83 981.105 1460.24 999.036C1451.26 1003.52 1451.26 1003.52 1442.11 1008.1C1441.87 994.695 1441.69 981.292 1441.54 967.889C1441.44 960.426 1441.33 952.962 1441.22 945.273C1442.11 926.55 1442.11 926.55 1451.17 917.489Z" fill="#2F2E2F"/>
<path d="M2575.11 1415.83C2590.07 1415.83 2605.03 1415.83 2620.43 1415.83C2623.43 1427.79 2626.42 1439.75 2629.5 1452.07C2586.44 1462.27 2586.44 1462.27 2566.05 1452.07C2569.04 1440.11 2572.03 1428.15 2575.11 1415.83Z" fill="#4D4946"/>
<path d="M4560.14 1379.59C4573.36 1382.39 4586.58 1385.23 4599.8 1388.08C4607.16 1389.66 4614.52 1391.24 4622.1 1392.86C4641.72 1397.71 4641.72 1397.71 4659.84 1406.77C4659.84 1412.75 4659.84 1418.73 4659.84 1424.89C4646.62 1422.09 4633.4 1419.25 4620.19 1416.4C4612.83 1414.82 4605.47 1413.24 4597.88 1411.62C4578.27 1406.77 4578.27 1406.77 4560.14 1397.71C4560.14 1391.73 4560.14 1385.75 4560.14 1379.59Z" fill="#D8D7D8"/>
<path d="M2393.83 573.18C2411.96 600.362 2411.96 600.362 2408.56 624.713C2406.69 631.627 2404.82 638.542 2402.9 645.666C2396.92 645.666 2390.93 645.666 2384.77 645.666C2381.78 657.626 2378.79 669.586 2375.71 681.909C2363.43 625.035 2363.43 625.035 2379.67 591.867C2384.34 585.7 2389.02 579.533 2393.83 573.18Z" fill="#434342"/>
<path d="M372.552 2258.48C378.534 2261.47 384.517 2264.46 390.68 2267.54C390.68 2279.5 390.68 2291.46 390.68 2303.79C375.725 2309.77 360.769 2315.75 345.36 2321.91C342.369 2315.93 339.378 2309.95 336.296 2303.79C348.261 2288.84 360.225 2273.89 372.552 2258.48Z" fill="#F9F8F7"/>
<path d="M4569.2 1397.71C4587.15 1403.69 4605.1 1409.67 4623.59 1415.83C4620.6 1424.8 4617.61 1433.77 4614.52 1443.01C4593.59 1440.02 4572.65 1437.03 4551.08 1433.95C4557.06 1421.99 4563.04 1410.03 4569.2 1397.71Z" fill="#302F2E"/>
<path d="M4333.54 1388.65C4327.31 1406.2 4327.31 1406.2 4315.41 1424.89C4291.62 1431.69 4291.62 1431.69 4270.09 1433.95C4267.1 1421.99 4264.11 1410.03 4261.03 1397.71C4287.57 1388.87 4305.95 1387.9 4333.54 1388.65Z" fill="#353535"/>
<path d="M4387.92 1669.53C4405.87 1675.51 4423.82 1681.49 4442.31 1687.65C4439.32 1696.62 4436.33 1705.59 4433.24 1714.84C4412.31 1711.85 4391.37 1708.86 4369.8 1705.78C4375.78 1702.79 4381.76 1699.8 4387.92 1696.71C4387.92 1687.74 4387.92 1678.77 4387.92 1669.53Z" fill="#383838"/>
<path d="M200.335 2340.03C206.318 2343.02 212.3 2346.01 218.463 2349.09C224.128 2367.78 224.128 2367.78 227.528 2385.33C221.545 2385.33 215.563 2385.33 209.399 2385.33C209.399 2397.29 209.399 2409.25 209.399 2421.58C197.435 2418.59 185.47 2415.6 173.143 2412.52C182.117 2412.52 191.09 2412.52 200.335 2412.52C194.353 2397.57 188.371 2382.62 182.207 2367.21C188.19 2367.21 194.172 2367.21 200.335 2367.21C200.335 2358.24 200.335 2349.27 200.335 2340.03Z" fill="#494747"/>
<path d="M227.528 2186C236.501 2186 245.474 2186 254.72 2186C254.72 2203.94 254.72 2221.88 254.72 2240.36C239.764 2237.37 224.808 2234.38 209.399 2231.3C215.382 2216.35 221.364 2201.4 227.528 2186Z" fill="#292625"/>
<path d="M4487.63 1705.78C4508.57 1711.76 4529.5 1717.74 4551.08 1723.9C4540.31 1738.05 4540.31 1738.05 4523.88 1751.08C4499.52 1748.25 4499.52 1748.25 4478.56 1742.02C4481.55 1730.06 4484.55 1718.1 4487.63 1705.78Z" fill="#373736"/>
<path d="M2121.91 419.147C2142.85 422.137 2163.79 425.127 2185.36 428.207C2185.36 440.168 2185.36 452.128 2185.36 464.45C2176.39 464.45 2167.41 464.45 2158.17 464.45C2138.34 441.798 2138.34 441.798 2121.91 419.147Z" fill="#353434"/>
<path d="M726.05 2548.43C740.779 2563.72 740.779 2563.72 753.242 2584.67C745.877 2609.59 745.877 2609.59 735.114 2629.97C720.385 2614.68 720.385 2614.68 707.922 2593.73C715.286 2568.81 715.286 2568.81 726.05 2548.43Z" fill="#444243"/>
<path d="M4215.71 2521.24C4233.27 2528.04 4233.27 2528.04 4251.96 2539.37C4258.76 2558.62 4258.76 2558.62 4261.03 2575.61C4240.09 2569.63 4219.15 2563.65 4197.58 2557.49C4203.56 2554.5 4209.54 2551.51 4215.71 2548.43C4215.71 2539.46 4215.71 2530.49 4215.71 2521.24Z" fill="#444543"/>
<path d="M4650.78 1370.53C4673.21 1379.5 4673.21 1379.5 4696.1 1388.65C4696.1 1397.62 4696.1 1406.59 4696.1 1415.83C4690.12 1415.83 4684.14 1415.83 4677.97 1415.83C4674.98 1421.81 4671.99 1427.79 4668.91 1433.95C4655.67 1409.97 4650.78 1398.67 4650.78 1370.53Z" fill="#302F2E"/>
<path d="M1351.47 3282.35C1373.9 3291.32 1373.9 3291.32 1396.79 3300.47C1393.8 3312.43 1390.81 3324.39 1387.73 3336.71C1375.76 3330.73 1363.8 3324.75 1351.47 3318.59C1351.47 3306.63 1351.47 3294.67 1351.47 3282.35Z" fill="#292929"/>
<path d="M82.5028 2213.18C94.4674 2222.15 106.432 2231.12 118.759 2240.36C106.794 2249.33 94.8299 2258.3 82.5028 2267.54C76.5206 2255.58 70.5383 2243.62 64.3747 2231.3C70.357 2225.32 76.3393 2219.34 82.5028 2213.18Z" fill="#373735"/>
<path d="M4940.83 1669.53C4946.81 1669.53 4952.79 1669.53 4958.96 1669.53C4952.16 1730.69 4952.16 1730.69 4931.77 1751.08C4926.1 1720.5 4926.1 1720.5 4922.7 1687.65C4928.68 1681.67 4934.67 1675.69 4940.83 1669.53Z" fill="#2A2829"/>
<path d="M1007.04 3626.66C1024.98 3626.66 1042.93 3626.66 1061.42 3626.66C1061.42 3635.63 1061.42 3644.6 1061.42 3653.84C1040.48 3653.84 1019.54 3653.84 997.971 3653.84C1000.96 3644.87 1003.95 3635.9 1007.04 3626.66Z" fill="#242323"/>
<path d="M272.848 2303.79C269.857 2312.76 266.865 2321.73 263.784 2330.97C248.828 2330.97 233.872 2330.97 218.463 2330.97C215.472 2322 212.481 2313.03 209.399 2303.79C233.57 2291.71 247.168 2297.71 272.848 2303.79Z" fill="#373432"/>
<path d="M227.528 2095.39C247.355 2098.22 247.355 2098.22 263.784 2104.45C257.801 2116.41 251.819 2128.37 245.656 2140.69C223.222 2131.72 223.222 2131.72 200.335 2122.57C211.665 2108.41 211.665 2108.41 227.528 2095.39Z" fill="#3A3A39"/>
<path d="M4396.99 1859.81C4406.05 1886.99 4406.05 1886.99 4396.99 1914.17C4378.29 1920.4 4378.29 1920.4 4360.73 1923.23C4365.84 1893.61 4374.32 1879.51 4396.99 1859.81Z" fill="#292A29"/>
<path d="M4859.25 1524.56C4874.21 1527.55 4889.17 1530.54 4904.57 1533.62C4904.57 1542.59 4904.57 1551.56 4904.57 1560.8C4889.62 1557.81 4874.66 1554.82 4859.25 1551.74C4859.25 1542.77 4859.25 1533.8 4859.25 1524.56Z" fill="#232222"/>
<path d="M898.267 3436.38C904.249 3436.38 910.231 3436.38 916.395 3436.38C926.073 3454.18 935.117 3472.34 943.587 3490.75C940.596 3496.73 937.605 3502.71 934.523 3508.87C928.541 3505.88 922.558 3502.89 916.395 3499.81C916.395 3487.85 916.395 3475.89 916.395 3463.56C907.421 3460.57 898.448 3457.58 889.203 3454.5C892.194 3448.52 895.185 3442.54 898.267 3436.38Z" fill="#434443"/>
<path d="M571.961 2240.36C577.943 2240.36 583.926 2240.36 590.089 2240.36C590.089 2258.3 590.089 2276.24 590.089 2294.73C581.116 2294.73 572.142 2294.73 562.897 2294.73C565.888 2276.79 568.879 2258.85 571.961 2240.36Z" fill="#32302F"/>
<path d="M4324.48 2204.12C4327.47 2213.09 4330.46 2222.06 4333.54 2231.3C4311.11 2244.76 4311.11 2244.76 4288.22 2258.48C4285.23 2246.52 4282.24 2234.56 4279.15 2222.24C4294.11 2222.24 4309.07 2222.24 4324.48 2222.24C4324.48 2216.26 4324.48 2210.28 4324.48 2204.12Z" fill="#E5E4E4"/>
<path d="M408.808 2213.18C408.808 2240.09 408.808 2267 408.808 2294.73C385.555 2271.48 385.782 2254.16 381.616 2222.24C399.744 2213.18 399.744 2213.18 408.808 2213.18Z" fill="#312E2C"/>
</svg>
